<svg xmlns="http://www.w3.org/2000/svg" width="1200" height="800" viewBox="0 0 1200 800">
  <defs>
    <pattern id="native-texture" width="240" height="240" patternUnits="userSpaceOnUse">
      <svg xmlns="http://www.w3.org/2000/svg" width="240" height="240" viewBox="0 0 240 240"><defs><filter id="wash" x="-20%" y="-20%" width="140%" height="140%"><feTurbulence type="fractalNoise" baseFrequency="0.011 0.05" numOctaves="3" seed="13" stitchTiles="stitch" result="f"/><feColorMatrix in="f" type="matrix" values="0 0 0 0 0.10 0 0 0 0 0.16 0 0 0 0 0.07 0 0 0 0.5 -0.12"/><feGaussianBlur stdDeviation="0.6"/></filter><filter id="bloom" x="-20%" y="-20%" width="140%" height="140%"><feTurbulence type="fractalNoise" baseFrequency="0.014" numOctaves="2" seed="5" stitchTiles="stitch" result="m"/><feColorMatrix in="m" type="matrix" values="0 0 0 0 0.40 0 0 0 0 0.52 0 0 0 0 0.10 0 0 0 0.45 -0.18"/><feGaussianBlur stdDeviation="1.3"/></filter><filter id="grain" x="0" y="0" width="100%" height="100%"><feTurbulence type="fractalNoise" baseFrequency="0.85" numOctaves="2" seed="9" stitchTiles="stitch" result="n"/><feColorMatrix in="n" type="matrix" values="0 0 0 0 0.42 0 0 0 0 0.54 0 0 0 0 0.16 0 0 0 0.4 0"/></filter><radialGradient id="lite" cx="0.26" cy="0.18" r="0.92"><stop offset="0" stop-color="#a9c41f" stop-opacity="0.20"/><stop offset="0.45" stop-color="#3ec99a" stop-opacity="0.05"/><stop offset="1" stop-color="#040806" stop-opacity="0.34"/></radialGradient></defs><rect width="240" height="240" filter="url(#wash)" opacity="0.55"/><rect width="240" height="240" filter="url(#bloom)" opacity="0.4"/><rect width="240" height="240" fill="url(#lite)"/><rect width="240" height="240" filter="url(#grain)" opacity="0.22"/></svg>
    </pattern>
    <pattern id="native-pattern" width="176" height="176" patternUnits="userSpaceOnUse">
      <svg xmlns="http://www.w3.org/2000/svg" width="220" height="220" viewBox="0 0 220 220" fill="none"><defs><linearGradient id="ink" x1="0" y1="0" x2="1" y2="1"><stop offset="0" stop-color="#e0ef60"/><stop offset="0.55" stop-color="#b4d12e"/><stop offset="1" stop-color="#3ec99a"/></linearGradient><radialGradient id="iris" cx="0.5" cy="0.5" r="0.5"><stop offset="0" stop-color="#eef6a8"/><stop offset="0.42" stop-color="#b4d12e"/><stop offset="0.82" stop-color="#3a7a3e"/><stop offset="1" stop-color="#5a8a4a"/></radialGradient><radialGradient id="glow" cx="0.5" cy="0.5" r="0.5"><stop offset="0" stop-color="#a9c41f" stop-opacity="0.55"/><stop offset="1" stop-color="#a9c41f" stop-opacity="0"/></radialGradient></defs><g stroke="url(#ink)" stroke-width="1.15" stroke-linecap="round" stroke-linejoin="round"><path d="M110 110 C110 92 124 80 142 84 C160 88 166 106 158 122 C150 138 132 140 122 128 C115 120 120 108 130 110 C136 111 138 117 134 121"/><path d="M158 122 C172 130 186 126 196 114 C204 104 202 90 192 86"/><path d="M196 114 C202 116 208 114 220 118 M0 118 C12 122 14 116 18 108"/><path d="M110 110 C96 102 88 86 96 70 C102 58 118 56 126 66 C132 74 128 84 118 84 C112 84 110 78 114 74"/><path d="M96 70 C84 58 86 40 100 30 C107 24 110 16 110 0 M110 0 C110 14 116 20 110 30"/><path d="M110 110 C92 114 76 108 70 92 C66 80 74 68 88 70 C96 71 98 80 92 84"/><path d="M70 92 C52 96 40 88 36 72 C33 60 40 50 30 42 C22 36 12 40 8 50 M0 64 C6 58 8 50 4 44"/><path d="M110 110 C112 128 102 144 84 146 C70 147 60 136 66 124 C70 116 80 116 84 124"/><path d="M84 146 C72 158 80 180 96 196 C104 204 110 210 110 220 M110 220 C110 210 116 204 110 196"/><path d="M122 128 C128 146 122 164 106 172 C96 177 96 188 102 196"/></g><g stroke="url(#ink)" stroke-width="1.05" fill="none" opacity="0.85"><path d="M142 84 C150 80 150 72 144 68 M158 122 C166 124 172 120 172 112 M88 70 C82 64 84 56 92 54 M66 124 C58 122 56 114 62 110"/></g><g fill="url(#glow)" opacity="0.35"><circle cx="40" cy="160" r="17"/><circle cx="180" cy="48" r="14"/></g><g><circle cx="110" cy="110" r="13" fill="#0a1206" stroke="url(#ink)" stroke-width="1.1"/><ellipse cx="110" cy="110" rx="13" ry="7" fill="none" stroke="url(#ink)" stroke-width="1.1"/><circle cx="110" cy="110" r="5.6" fill="url(#iris)"/><circle cx="110" cy="110" r="5.6" fill="none" stroke="#8fb83a" stroke-width="0.7"/><circle cx="110" cy="110" r="2" fill="#0a1206"/><circle cx="107" cy="107" r="1.1" fill="#eef6a8"/></g><g><ellipse cx="40" cy="160" rx="15" ry="9" fill="#0a1206" stroke="url(#ink)" stroke-width="1"/><circle cx="40" cy="160" r="5.6" fill="url(#iris)"/><circle cx="40" cy="160" r="5.6" fill="none" stroke="#8fb83a" stroke-width="0.65"/><circle cx="40" cy="160" r="2" fill="#0a1206"/><path d="M25 160 C32 150 48 150 55 160 M25 160 C32 170 48 170 55 160" fill="none" stroke="url(#ink)" stroke-width="0.95"/></g><g><ellipse cx="180" cy="48" rx="13" ry="8" fill="#0a1206" stroke="url(#ink)" stroke-width="1"/><circle cx="180" cy="48" r="4.6" fill="url(#iris)"/><circle cx="180" cy="48" r="4.6" fill="none" stroke="#8fb83a" stroke-width="0.6"/><circle cx="180" cy="48" r="1.7" fill="#0a1206"/><path d="M167 48 C174 39 186 39 193 48 M167 48 C174 57 186 57 193 48" fill="none" stroke="url(#ink)" stroke-width="0.85"/></g><g fill="none" stroke="url(#ink)" stroke-width="1.05" opacity="0.95"><path d="M0 0 C8 6 12 14 11 24 C10 33 4 38 0 40"/><path d="M220 220 C212 214 208 206 209 196 C210 187 216 182 220 180"/></g><g fill="none" stroke="url(#ink)" stroke-width="1.05" opacity="0.9"><path d="M0 40 C14 45 22 56 20 70 C19 80 24 86 32 84"/><path d="M188 84 C196 86 201 80 200 70 C198 56 206 35 220 40"/><path d="M0 64 C14 59 22 50 20 38 C19 30 24 24 30 26"/><path d="M190 26 C196 24 201 30 200 38 C198 50 206 69 220 64"/><path d="M0 180 C14 175 22 166 20 154 C19 146 24 140 30 142"/><path d="M190 142 C196 140 201 146 200 154 C198 166 206 185 220 180"/></g><g transform="translate(150,176)" fill="none" stroke="url(#ink)" stroke-width="0.9" opacity="0.85"><path d="M-14 8 C-8 2 -2 2 0 6 C2 2 8 2 14 8 L14 18 C8 12 2 12 0 16 C-2 12 -8 12 -14 18 Z"/><path d="M0 6 L0 16"/><path d="M-10 10 L-3 10 M3 10 L10 10 M-9 13 L-4 13 M4 13 L9 13"/></g><g transform="translate(48,52)" fill="none" stroke="url(#ink)" stroke-width="0.9" opacity="0.8"><path d="M-13 7 C-7 2 -2 2 0 5 C2 2 7 2 13 7 L13 16 C7 11 2 11 0 14 C-2 11 -7 11 -13 16 Z"/><path d="M0 5 L0 14"/><path d="M-9 9 L-3 9 M3 9 L9 9"/></g><g><g transform="translate(158,150) scale(1.15)" stroke="url(#ink)" stroke-width="0.826" fill="none" opacity="0.72" stroke-linecap="round" stroke-linejoin="round"><path d="M0 -8 C5 -10 8 -6 6 -2 C5 0 2 0 2 -3"/><path d="M2 -3 L2 9"/><path d="M-4 2 L8 -1"/><path d="M2 9 L-2 13"/><circle cx="2" cy="-3" r="0.9" fill="url(#ink)" stroke="none"/></g><g transform="translate(33,90) scale(0.95)" stroke="url(#ink)" stroke-width="1.0" fill="none" opacity="0.66" stroke-linecap="round" stroke-linejoin="round"><path d="M0 -8 C5 -10 8 -6 6 -2 C5 0 2 0 2 -3"/><path d="M2 -3 L2 9"/><path d="M-4 2 L8 -1"/><path d="M2 9 L-2 13"/><circle cx="2" cy="-3" r="0.9" fill="url(#ink)" stroke="none"/></g><g transform="translate(204,92) scale(1.0)" stroke="url(#ink)" stroke-width="0.95" fill="none" opacity="0.66" stroke-linecap="round" stroke-linejoin="round"><path d="M0 -8 C5 -10 8 -6 6 -2 C5 0 2 0 2 -3"/><path d="M2 -3 L2 9"/><path d="M-4 2 L8 -1"/><path d="M2 9 L-2 13"/><circle cx="2" cy="-3" r="0.9" fill="url(#ink)" stroke="none"/></g></g><g fill="#a9c41f"><circle cx="142" cy="84" r="1.5"/><circle cx="88" cy="70" r="1.3"/><circle cx="84" cy="146" r="1.4"/></g></svg>
    </pattern>
  </defs>
  <rect width="1200" height="800" fill="url(#native-texture)" opacity="0.56"/>
  <rect width="1200" height="800" fill="url(#native-pattern)" opacity="0.12"/>
</svg>
