<svg xmlns="http://www.w3.org/2000/svg" width="1200" height="800" viewBox="0 0 1200 800">
  <defs>
    <pattern id="native-texture" width="300" height="300" patternUnits="userSpaceOnUse">
      <svg xmlns="http://www.w3.org/2000/svg" width="300" height="300" viewBox="0 0 300 300"><defs><filter id="frost"><feTurbulence type="fractalNoise" baseFrequency="0.9" numOctaves="2" stitchTiles="stitch" result="n"/><feColorMatrix in="n" type="matrix" values="0 0 0 0 0.243 0 0 0 0 0.878 0 0 0 0 0.835 0 0 0 0.5 0"/></filter><filter id="facet"><feTurbulence type="turbulence" baseFrequency="0.012 0.05" numOctaves="2" stitchTiles="stitch" result="f"/><feColorMatrix in="f" type="matrix" values="0 0 0 0 0.416 0 0 0 0 0.910 0 0 0 0 1 0 0 0 0.14 0"/></filter></defs><rect width="300" height="300" filter="url(#facet)"/><rect width="300" height="300" filter="url(#frost)" opacity="0.5"/></svg>
    </pattern>
    <pattern id="native-pattern" width="176" height="176" patternUnits="userSpaceOnUse">
      <svg xmlns="http://www.w3.org/2000/svg" width="176" height="176" viewBox="0 0 176 176"><defs><radialGradient id="wk" cx="50%" cy="50%" r="50%"><stop offset="0%" stop-color="#6ae8ff" stop-opacity="0.9"/><stop offset="48%" stop-color="#3ee0d6" stop-opacity="0.5"/><stop offset="100%" stop-color="#3ee0d6" stop-opacity="0"/></radialGradient></defs><g fill="none" stroke="#88b4bd" stroke-width="0.8" stroke-opacity="0.5"><path d="M76 0 C76 14 82 22 88 32 C94 22 100 14 100 0"/><path d="M76 176 C76 162 82 154 88 144 C94 154 100 162 100 176"/><path d="M0 76 C14 76 22 82 32 88 C22 94 14 100 0 100"/><path d="M176 76 C162 76 154 82 144 88 C154 94 162 100 176 100"/></g><g fill="none" stroke="#3ee0d6" stroke-width="1.2" stroke-opacity="0.85"><path d="M70 0 C70 16 80 26 88 48 C96 26 106 16 106 0"/><path d="M70 176 C70 160 80 150 88 128 C96 150 106 160 106 176"/><path d="M0 70 C16 70 26 80 48 88 C26 96 16 106 0 106"/><path d="M176 70 C160 70 150 80 128 88 C150 96 160 106 176 106"/></g><g fill="none" stroke="#6ae8ff" stroke-width="0.9" stroke-opacity="0.6"><path d="M64 0 C66 12 74 20 88 40 C102 20 110 12 112 0"/><path d="M64 176 C66 164 74 156 88 136 C102 156 110 164 112 176"/><path d="M0 64 C12 66 20 74 40 88 C20 102 12 110 0 112"/><path d="M176 64 C164 66 156 74 136 88 C156 102 164 110 176 112"/></g><g fill="none" stroke="#88b4bd" stroke-width="1.1" stroke-opacity="0.45"><path d="M14 0 C32 18 38 30 38 58 M0 14 C18 32 30 38 58 38"/><path d="M162 0 C144 18 138 30 138 58 M176 14 C158 32 146 38 118 38"/><path d="M14 176 C32 158 38 146 38 118 M0 162 C18 144 30 138 58 138"/><path d="M162 176 C144 158 138 146 138 118 M176 162 C158 144 146 138 118 138"/></g><g fill="none" stroke="#3ee0d6" stroke-width="0.9" stroke-opacity="0.8"><path d="M22 0 C40 16 48 30 48 52 M0 22 C16 40 30 48 52 48"/><path d="M154 0 C136 16 128 30 128 52 M176 22 C160 40 146 48 124 48"/><path d="M22 176 C40 160 48 146 48 124 M0 154 C16 136 30 128 52 128"/><path d="M154 176 C136 160 128 146 128 124 M176 154 C160 136 146 128 124 128"/></g><g fill="none" stroke="#88b4bd" stroke-width="0.75" stroke-opacity="0.4"><path d="M44 56 L56 44 M120 44 L132 56 M44 120 L56 132 M132 120 L120 132"/></g><circle cx="88" cy="88" r="28" fill="url(#wk)"/><g fill="none" stroke="#88b4bd" stroke-width="0.9" stroke-opacity="0.55"><path d="M88 60 L107 69 L116 88 L107 107 L88 116 L69 107 L60 88 L69 69 Z"/></g><g fill="none" stroke="#3ee0d6" stroke-width="1.2" stroke-opacity="0.85"><path d="M88 64 L103 71 L112 88 L103 105 L88 112 L73 105 L64 88 L73 71 Z"/></g><g fill="none" stroke="#6ae8ff" stroke-width="1.3" stroke-opacity="0.95"><path d="M88 48 L92 80 L88 88 L84 80 Z"/><path d="M88 128 L84 96 L88 88 L92 96 Z"/><path d="M48 88 L80 84 L88 88 L80 92 Z"/><path d="M128 88 L96 92 L88 88 L96 84 Z"/></g><g fill="none" stroke="#3ee0d6" stroke-width="1" stroke-opacity="0.75"><path d="M71 71 L82 82 M105 71 L94 82 M71 105 L82 94 M105 105 L94 94"/></g><g fill="none" stroke="#6ae8ff" stroke-width="1.1" stroke-opacity="0.9"><path d="M88 74 L96 88 L88 102 L80 88 Z"/></g><circle cx="88" cy="88" r="3.2" fill="#6ae8ff" fill-opacity="0.95"/><g fill="none" stroke="#3ee0d6" stroke-width="0.8" stroke-opacity="0.5"><circle cx="88" cy="88" r="20"/></g></svg>
    </pattern>
  </defs>
  <rect width="1200" height="800" fill="url(#native-texture)" opacity="0.56"/>
  <rect width="1200" height="800" fill="url(#native-pattern)" opacity="0.12"/>
</svg>
