<svg xmlns="http://www.w3.org/2000/svg" width="1200" height="800" viewBox="0 0 1200 800">
  <defs>
    <pattern id="native-texture" width="200" height="200" patternUnits="userSpaceOnUse">
      <svg xmlns="http://www.w3.org/2000/svg" width="200" height="200" viewBox="0 0 200 200"><defs><filter id="guilloche" x="0" y="0" width="100%" height="100%"><feTurbulence type="turbulence" baseFrequency="0.9 0.016" numOctaves="2" seed="11" stitchTiles="stitch" result="t"/><feColorMatrix in="t" type="matrix" values="0 0 0 0 0.79 0 0 0 0 0.66 0 0 0 0 0.36 0 0 0 0.45 0"/></filter><filter id="grain"><feTurbulence type="fractalNoise" baseFrequency="0.8" numOctaves="2" seed="7" stitchTiles="stitch" result="n"/><feColorMatrix in="n" type="matrix" values="0 0 0 0 0.05 0 0 0 0 0.04 0 0 0 0 0.02 0 0 0 0.4 0"/></filter></defs><rect width="200" height="200" filter="url(#guilloche)" opacity="0.5"/><rect width="200" height="200" filter="url(#grain)" opacity="0.35"/></svg>
    </pattern>
    <pattern id="native-pattern" width="240" height="240" patternUnits="userSpaceOnUse">
      <svg xmlns="http://www.w3.org/2000/svg" width="240" height="240" viewBox="0 0 240 240"><defs><linearGradient id="rim" x1="0" y1="0" x2="0" y2="1"><stop offset="0%" stop-color="#f4dc94"/><stop offset="45%" stop-color="#cba85c"/><stop offset="100%" stop-color="#9a7a34"/></linearGradient><radialGradient id="core" cx="42%" cy="38%" r="70%"><stop offset="0%" stop-color="#f0d690"/><stop offset="55%" stop-color="#c19a44"/><stop offset="100%" stop-color="#6f5224"/></radialGradient></defs><g transform="translate(60 60)"><path d="M19.62 -3.9 L25.92 -2.04 L25.92 2.04 L19.62 3.9 L24.73 8.03 L23.17 11.8 L16.63 11.11 L19.77 16.89 L16.89 19.77 L11.11 16.63 L11.8 23.17 L8.03 24.73 L3.9 19.62 L2.04 25.92 L-2.04 25.92 L-3.9 19.62 L-8.03 24.73 L-11.8 23.17 L-11.11 16.63 L-16.89 19.77 L-19.77 16.89 L-16.63 11.11 L-23.17 11.8 L-24.73 8.03 L-19.62 3.9 L-25.92 2.04 L-25.92 -2.04 L-19.62 -3.9 L-24.73 -8.03 L-23.17 -11.8 L-16.63 -11.11 L-19.77 -16.89 L-16.89 -19.77 L-11.11 -16.63 L-11.8 -23.17 L-8.03 -24.73 L-3.9 -19.62 L-2.04 -25.92 L2.04 -25.92 L3.9 -19.62 L8.03 -24.73 L11.8 -23.17 L11.11 -16.63 L16.89 -19.77 L19.77 -16.89 L16.63 -11.11 L23.17 -11.8 L24.73 -8.03 Z" fill="none" stroke="#7a5a26" stroke-width="0.9"/><circle r="11" fill="none" stroke="#6a4d20" stroke-width="0.7"/></g><g transform="translate(180 60)"><path d="M19.62 -3.9 L25.92 -2.04 L25.92 2.04 L19.62 3.9 L24.73 8.03 L23.17 11.8 L16.63 11.11 L19.77 16.89 L16.89 19.77 L11.11 16.63 L11.8 23.17 L8.03 24.73 L3.9 19.62 L2.04 25.92 L-2.04 25.92 L-3.9 19.62 L-8.03 24.73 L-11.8 23.17 L-11.11 16.63 L-16.89 19.77 L-19.77 16.89 L-16.63 11.11 L-23.17 11.8 L-24.73 8.03 L-19.62 3.9 L-25.92 2.04 L-25.92 -2.04 L-19.62 -3.9 L-24.73 -8.03 L-23.17 -11.8 L-16.63 -11.11 L-19.77 -16.89 L-16.89 -19.77 L-11.11 -16.63 L-11.8 -23.17 L-8.03 -24.73 L-3.9 -19.62 L-2.04 -25.92 L2.04 -25.92 L3.9 -19.62 L8.03 -24.73 L11.8 -23.17 L11.11 -16.63 L16.89 -19.77 L19.77 -16.89 L16.63 -11.11 L23.17 -11.8 L24.73 -8.03 Z" fill="none" stroke="#7a5a26" stroke-width="0.9"/><circle r="11" fill="none" stroke="#6a4d20" stroke-width="0.7"/></g><g transform="translate(60 180)"><path d="M19.62 -3.9 L25.92 -2.04 L25.92 2.04 L19.62 3.9 L24.73 8.03 L23.17 11.8 L16.63 11.11 L19.77 16.89 L16.89 19.77 L11.11 16.63 L11.8 23.17 L8.03 24.73 L3.9 19.62 L2.04 25.92 L-2.04 25.92 L-3.9 19.62 L-8.03 24.73 L-11.8 23.17 L-11.11 16.63 L-16.89 19.77 L-19.77 16.89 L-16.63 11.11 L-23.17 11.8 L-24.73 8.03 L-19.62 3.9 L-25.92 2.04 L-25.92 -2.04 L-19.62 -3.9 L-24.73 -8.03 L-23.17 -11.8 L-16.63 -11.11 L-19.77 -16.89 L-16.89 -19.77 L-11.11 -16.63 L-11.8 -23.17 L-8.03 -24.73 L-3.9 -19.62 L-2.04 -25.92 L2.04 -25.92 L3.9 -19.62 L8.03 -24.73 L11.8 -23.17 L11.11 -16.63 L16.89 -19.77 L19.77 -16.89 L16.63 -11.11 L23.17 -11.8 L24.73 -8.03 Z" fill="none" stroke="#7a5a26" stroke-width="0.9"/><circle r="11" fill="none" stroke="#6a4d20" stroke-width="0.7"/></g><g transform="translate(180 180)"><path d="M19.62 -3.9 L25.92 -2.04 L25.92 2.04 L19.62 3.9 L24.73 8.03 L23.17 11.8 L16.63 11.11 L19.77 16.89 L16.89 19.77 L11.11 16.63 L11.8 23.17 L8.03 24.73 L3.9 19.62 L2.04 25.92 L-2.04 25.92 L-3.9 19.62 L-8.03 24.73 L-11.8 23.17 L-11.11 16.63 L-16.89 19.77 L-19.77 16.89 L-16.63 11.11 L-23.17 11.8 L-24.73 8.03 L-19.62 3.9 L-25.92 2.04 L-25.92 -2.04 L-19.62 -3.9 L-24.73 -8.03 L-23.17 -11.8 L-16.63 -11.11 L-19.77 -16.89 L-16.89 -19.77 L-11.11 -16.63 L-11.8 -23.17 L-8.03 -24.73 L-3.9 -19.62 L-2.04 -25.92 L2.04 -25.92 L3.9 -19.62 L8.03 -24.73 L11.8 -23.17 L11.11 -16.63 L16.89 -19.77 L19.77 -16.89 L16.63 -11.11 L23.17 -11.8 L24.73 -8.03 Z" fill="none" stroke="#7a5a26" stroke-width="0.9"/><circle r="11" fill="none" stroke="#6a4d20" stroke-width="0.7"/></g><g transform="translate(0 0)"><path d="M49.57 -6.53 L59.92 -3.14 L59.92 3.14 L49.57 6.53 L58.69 12.47 L57.06 18.54 L46.19 19.13 L53.46 27.24 L50.32 32.68 L39.67 30.44 L44.59 40.15 L40.15 44.59 L30.44 39.67 L32.68 50.32 L27.24 53.46 L19.13 46.19 L18.54 57.06 L12.47 58.69 L6.53 49.57 L3.14 59.92 L-3.14 59.92 L-6.53 49.57 L-12.47 58.69 L-18.54 57.06 L-19.13 46.19 L-27.24 53.46 L-32.68 50.32 L-30.44 39.67 L-40.15 44.59 L-44.59 40.15 L-39.67 30.44 L-50.32 32.68 L-53.46 27.24 L-46.19 19.13 L-57.06 18.54 L-58.69 12.47 L-49.57 6.53 L-59.92 3.14 L-59.92 -3.14 L-49.57 -6.53 L-58.69 -12.47 L-57.06 -18.54 L-46.19 -19.13 L-53.46 -27.24 L-50.32 -32.68 L-39.67 -30.44 L-44.59 -40.15 L-40.15 -44.59 L-30.44 -39.67 L-32.68 -50.32 L-27.24 -53.46 L-19.13 -46.19 L-18.54 -57.06 L-12.47 -58.69 L-6.53 -49.57 L-3.14 -59.92 L3.14 -59.92 L6.53 -49.57 L12.47 -58.69 L18.54 -57.06 L19.13 -46.19 L27.24 -53.46 L32.68 -50.32 L30.44 -39.67 L40.15 -44.59 L44.59 -40.15 L39.67 -30.44 L50.32 -32.68 L53.46 -27.24 L46.19 -19.13 L57.06 -18.54 L58.69 -12.47 Z" fill="none" stroke="#c4a44a" stroke-width="1.1"/><circle r="48" fill="none" stroke="#b08e3e" stroke-width="0.7"/><path d="M8.0 0.0 L40.0 0.0 M4.0 6.9 L20.0 34.6 M-4.0 6.9 L-20.0 34.6 M-8.0 0.0 L-40.0 0.0 M-4.0 -6.9 L-20.0 -34.6 M4.0 -6.9 L20.0 -34.6" fill="none" stroke="#a8863a" stroke-width="0.7"/><circle r="8" fill="none" stroke="#c4a44a" stroke-width="0.8"/></g><g transform="translate(240 0)"><path d="M49.57 -6.53 L59.92 -3.14 L59.92 3.14 L49.57 6.53 L58.69 12.47 L57.06 18.54 L46.19 19.13 L53.46 27.24 L50.32 32.68 L39.67 30.44 L44.59 40.15 L40.15 44.59 L30.44 39.67 L32.68 50.32 L27.24 53.46 L19.13 46.19 L18.54 57.06 L12.47 58.69 L6.53 49.57 L3.14 59.92 L-3.14 59.92 L-6.53 49.57 L-12.47 58.69 L-18.54 57.06 L-19.13 46.19 L-27.24 53.46 L-32.68 50.32 L-30.44 39.67 L-40.15 44.59 L-44.59 40.15 L-39.67 30.44 L-50.32 32.68 L-53.46 27.24 L-46.19 19.13 L-57.06 18.54 L-58.69 12.47 L-49.57 6.53 L-59.92 3.14 L-59.92 -3.14 L-49.57 -6.53 L-58.69 -12.47 L-57.06 -18.54 L-46.19 -19.13 L-53.46 -27.24 L-50.32 -32.68 L-39.67 -30.44 L-44.59 -40.15 L-40.15 -44.59 L-30.44 -39.67 L-32.68 -50.32 L-27.24 -53.46 L-19.13 -46.19 L-18.54 -57.06 L-12.47 -58.69 L-6.53 -49.57 L-3.14 -59.92 L3.14 -59.92 L6.53 -49.57 L12.47 -58.69 L18.54 -57.06 L19.13 -46.19 L27.24 -53.46 L32.68 -50.32 L30.44 -39.67 L40.15 -44.59 L44.59 -40.15 L39.67 -30.44 L50.32 -32.68 L53.46 -27.24 L46.19 -19.13 L57.06 -18.54 L58.69 -12.47 Z" fill="none" stroke="#c4a44a" stroke-width="1.1"/><circle r="48" fill="none" stroke="#b08e3e" stroke-width="0.7"/><path d="M8.0 0.0 L40.0 0.0 M4.0 6.9 L20.0 34.6 M-4.0 6.9 L-20.0 34.6 M-8.0 0.0 L-40.0 0.0 M-4.0 -6.9 L-20.0 -34.6 M4.0 -6.9 L20.0 -34.6" fill="none" stroke="#a8863a" stroke-width="0.7"/><circle r="8" fill="none" stroke="#c4a44a" stroke-width="0.8"/></g><g transform="translate(0 240)"><path d="M49.57 -6.53 L59.92 -3.14 L59.92 3.14 L49.57 6.53 L58.69 12.47 L57.06 18.54 L46.19 19.13 L53.46 27.24 L50.32 32.68 L39.67 30.44 L44.59 40.15 L40.15 44.59 L30.44 39.67 L32.68 50.32 L27.24 53.46 L19.13 46.19 L18.54 57.06 L12.47 58.69 L6.53 49.57 L3.14 59.92 L-3.14 59.92 L-6.53 49.57 L-12.47 58.69 L-18.54 57.06 L-19.13 46.19 L-27.24 53.46 L-32.68 50.32 L-30.44 39.67 L-40.15 44.59 L-44.59 40.15 L-39.67 30.44 L-50.32 32.68 L-53.46 27.24 L-46.19 19.13 L-57.06 18.54 L-58.69 12.47 L-49.57 6.53 L-59.92 3.14 L-59.92 -3.14 L-49.57 -6.53 L-58.69 -12.47 L-57.06 -18.54 L-46.19 -19.13 L-53.46 -27.24 L-50.32 -32.68 L-39.67 -30.44 L-44.59 -40.15 L-40.15 -44.59 L-30.44 -39.67 L-32.68 -50.32 L-27.24 -53.46 L-19.13 -46.19 L-18.54 -57.06 L-12.47 -58.69 L-6.53 -49.57 L-3.14 -59.92 L3.14 -59.92 L6.53 -49.57 L12.47 -58.69 L18.54 -57.06 L19.13 -46.19 L27.24 -53.46 L32.68 -50.32 L30.44 -39.67 L40.15 -44.59 L44.59 -40.15 L39.67 -30.44 L50.32 -32.68 L53.46 -27.24 L46.19 -19.13 L57.06 -18.54 L58.69 -12.47 Z" fill="none" stroke="#c4a44a" stroke-width="1.1"/><circle r="48" fill="none" stroke="#b08e3e" stroke-width="0.7"/><path d="M8.0 0.0 L40.0 0.0 M4.0 6.9 L20.0 34.6 M-4.0 6.9 L-20.0 34.6 M-8.0 0.0 L-40.0 0.0 M-4.0 -6.9 L-20.0 -34.6 M4.0 -6.9 L20.0 -34.6" fill="none" stroke="#a8863a" stroke-width="0.7"/><circle r="8" fill="none" stroke="#c4a44a" stroke-width="0.8"/></g><g transform="translate(240 240)"><path d="M49.57 -6.53 L59.92 -3.14 L59.92 3.14 L49.57 6.53 L58.69 12.47 L57.06 18.54 L46.19 19.13 L53.46 27.24 L50.32 32.68 L39.67 30.44 L44.59 40.15 L40.15 44.59 L30.44 39.67 L32.68 50.32 L27.24 53.46 L19.13 46.19 L18.54 57.06 L12.47 58.69 L6.53 49.57 L3.14 59.92 L-3.14 59.92 L-6.53 49.57 L-12.47 58.69 L-18.54 57.06 L-19.13 46.19 L-27.24 53.46 L-32.68 50.32 L-30.44 39.67 L-40.15 44.59 L-44.59 40.15 L-39.67 30.44 L-50.32 32.68 L-53.46 27.24 L-46.19 19.13 L-57.06 18.54 L-58.69 12.47 L-49.57 6.53 L-59.92 3.14 L-59.92 -3.14 L-49.57 -6.53 L-58.69 -12.47 L-57.06 -18.54 L-46.19 -19.13 L-53.46 -27.24 L-50.32 -32.68 L-39.67 -30.44 L-44.59 -40.15 L-40.15 -44.59 L-30.44 -39.67 L-32.68 -50.32 L-27.24 -53.46 L-19.13 -46.19 L-18.54 -57.06 L-12.47 -58.69 L-6.53 -49.57 L-3.14 -59.92 L3.14 -59.92 L6.53 -49.57 L12.47 -58.69 L18.54 -57.06 L19.13 -46.19 L27.24 -53.46 L32.68 -50.32 L30.44 -39.67 L40.15 -44.59 L44.59 -40.15 L39.67 -30.44 L50.32 -32.68 L53.46 -27.24 L46.19 -19.13 L57.06 -18.54 L58.69 -12.47 Z" fill="none" stroke="#c4a44a" stroke-width="1.1"/><circle r="48" fill="none" stroke="#b08e3e" stroke-width="0.7"/><path d="M8.0 0.0 L40.0 0.0 M4.0 6.9 L20.0 34.6 M-4.0 6.9 L-20.0 34.6 M-8.0 0.0 L-40.0 0.0 M-4.0 -6.9 L-20.0 -34.6 M4.0 -6.9 L20.0 -34.6" fill="none" stroke="#a8863a" stroke-width="0.7"/><circle r="8" fill="none" stroke="#c4a44a" stroke-width="0.8"/></g><g transform="translate(120 0)"><path d="M49.57 -6.53 L59.92 -3.14 L59.92 3.14 L49.57 6.53 L58.69 12.47 L57.06 18.54 L46.19 19.13 L53.46 27.24 L50.32 32.68 L39.67 30.44 L44.59 40.15 L40.15 44.59 L30.44 39.67 L32.68 50.32 L27.24 53.46 L19.13 46.19 L18.54 57.06 L12.47 58.69 L6.53 49.57 L3.14 59.92 L-3.14 59.92 L-6.53 49.57 L-12.47 58.69 L-18.54 57.06 L-19.13 46.19 L-27.24 53.46 L-32.68 50.32 L-30.44 39.67 L-40.15 44.59 L-44.59 40.15 L-39.67 30.44 L-50.32 32.68 L-53.46 27.24 L-46.19 19.13 L-57.06 18.54 L-58.69 12.47 L-49.57 6.53 L-59.92 3.14 L-59.92 -3.14 L-49.57 -6.53 L-58.69 -12.47 L-57.06 -18.54 L-46.19 -19.13 L-53.46 -27.24 L-50.32 -32.68 L-39.67 -30.44 L-44.59 -40.15 L-40.15 -44.59 L-30.44 -39.67 L-32.68 -50.32 L-27.24 -53.46 L-19.13 -46.19 L-18.54 -57.06 L-12.47 -58.69 L-6.53 -49.57 L-3.14 -59.92 L3.14 -59.92 L6.53 -49.57 L12.47 -58.69 L18.54 -57.06 L19.13 -46.19 L27.24 -53.46 L32.68 -50.32 L30.44 -39.67 L40.15 -44.59 L44.59 -40.15 L39.67 -30.44 L50.32 -32.68 L53.46 -27.24 L46.19 -19.13 L57.06 -18.54 L58.69 -12.47 Z" fill="none" stroke="#c4a44a" stroke-width="1.1"/><circle r="48" fill="none" stroke="#b08e3e" stroke-width="0.7"/><path d="M8.0 0.0 L40.0 0.0 M4.0 6.9 L20.0 34.6 M-4.0 6.9 L-20.0 34.6 M-8.0 0.0 L-40.0 0.0 M-4.0 -6.9 L-20.0 -34.6 M4.0 -6.9 L20.0 -34.6" fill="none" stroke="#a8863a" stroke-width="0.7"/><circle r="8" fill="none" stroke="#c4a44a" stroke-width="0.8"/></g><g transform="translate(0 120)"><path d="M49.57 -6.53 L59.92 -3.14 L59.92 3.14 L49.57 6.53 L58.69 12.47 L57.06 18.54 L46.19 19.13 L53.46 27.24 L50.32 32.68 L39.67 30.44 L44.59 40.15 L40.15 44.59 L30.44 39.67 L32.68 50.32 L27.24 53.46 L19.13 46.19 L18.54 57.06 L12.47 58.69 L6.53 49.57 L3.14 59.92 L-3.14 59.92 L-6.53 49.57 L-12.47 58.69 L-18.54 57.06 L-19.13 46.19 L-27.24 53.46 L-32.68 50.32 L-30.44 39.67 L-40.15 44.59 L-44.59 40.15 L-39.67 30.44 L-50.32 32.68 L-53.46 27.24 L-46.19 19.13 L-57.06 18.54 L-58.69 12.47 L-49.57 6.53 L-59.92 3.14 L-59.92 -3.14 L-49.57 -6.53 L-58.69 -12.47 L-57.06 -18.54 L-46.19 -19.13 L-53.46 -27.24 L-50.32 -32.68 L-39.67 -30.44 L-44.59 -40.15 L-40.15 -44.59 L-30.44 -39.67 L-32.68 -50.32 L-27.24 -53.46 L-19.13 -46.19 L-18.54 -57.06 L-12.47 -58.69 L-6.53 -49.57 L-3.14 -59.92 L3.14 -59.92 L6.53 -49.57 L12.47 -58.69 L18.54 -57.06 L19.13 -46.19 L27.24 -53.46 L32.68 -50.32 L30.44 -39.67 L40.15 -44.59 L44.59 -40.15 L39.67 -30.44 L50.32 -32.68 L53.46 -27.24 L46.19 -19.13 L57.06 -18.54 L58.69 -12.47 Z" fill="none" stroke="#c4a44a" stroke-width="1.1"/><circle r="48" fill="none" stroke="#b08e3e" stroke-width="0.7"/><path d="M8.0 0.0 L40.0 0.0 M4.0 6.9 L20.0 34.6 M-4.0 6.9 L-20.0 34.6 M-8.0 0.0 L-40.0 0.0 M-4.0 -6.9 L-20.0 -34.6 M4.0 -6.9 L20.0 -34.6" fill="none" stroke="#a8863a" stroke-width="0.7"/><circle r="8" fill="none" stroke="#c4a44a" stroke-width="0.8"/></g><g transform="translate(240 120)"><path d="M49.57 -6.53 L59.92 -3.14 L59.92 3.14 L49.57 6.53 L58.69 12.47 L57.06 18.54 L46.19 19.13 L53.46 27.24 L50.32 32.68 L39.67 30.44 L44.59 40.15 L40.15 44.59 L30.44 39.67 L32.68 50.32 L27.24 53.46 L19.13 46.19 L18.54 57.06 L12.47 58.69 L6.53 49.57 L3.14 59.92 L-3.14 59.92 L-6.53 49.57 L-12.47 58.69 L-18.54 57.06 L-19.13 46.19 L-27.24 53.46 L-32.68 50.32 L-30.44 39.67 L-40.15 44.59 L-44.59 40.15 L-39.67 30.44 L-50.32 32.68 L-53.46 27.24 L-46.19 19.13 L-57.06 18.54 L-58.69 12.47 L-49.57 6.53 L-59.92 3.14 L-59.92 -3.14 L-49.57 -6.53 L-58.69 -12.47 L-57.06 -18.54 L-46.19 -19.13 L-53.46 -27.24 L-50.32 -32.68 L-39.67 -30.44 L-44.59 -40.15 L-40.15 -44.59 L-30.44 -39.67 L-32.68 -50.32 L-27.24 -53.46 L-19.13 -46.19 L-18.54 -57.06 L-12.47 -58.69 L-6.53 -49.57 L-3.14 -59.92 L3.14 -59.92 L6.53 -49.57 L12.47 -58.69 L18.54 -57.06 L19.13 -46.19 L27.24 -53.46 L32.68 -50.32 L30.44 -39.67 L40.15 -44.59 L44.59 -40.15 L39.67 -30.44 L50.32 -32.68 L53.46 -27.24 L46.19 -19.13 L57.06 -18.54 L58.69 -12.47 Z" fill="none" stroke="#c4a44a" stroke-width="1.1"/><circle r="48" fill="none" stroke="#b08e3e" stroke-width="0.7"/><path d="M8.0 0.0 L40.0 0.0 M4.0 6.9 L20.0 34.6 M-4.0 6.9 L-20.0 34.6 M-8.0 0.0 L-40.0 0.0 M-4.0 -6.9 L-20.0 -34.6 M4.0 -6.9 L20.0 -34.6" fill="none" stroke="#a8863a" stroke-width="0.7"/><circle r="8" fill="none" stroke="#c4a44a" stroke-width="0.8"/></g><g transform="translate(120 240)"><path d="M49.57 -6.53 L59.92 -3.14 L59.92 3.14 L49.57 6.53 L58.69 12.47 L57.06 18.54 L46.19 19.13 L53.46 27.24 L50.32 32.68 L39.67 30.44 L44.59 40.15 L40.15 44.59 L30.44 39.67 L32.68 50.32 L27.24 53.46 L19.13 46.19 L18.54 57.06 L12.47 58.69 L6.53 49.57 L3.14 59.92 L-3.14 59.92 L-6.53 49.57 L-12.47 58.69 L-18.54 57.06 L-19.13 46.19 L-27.24 53.46 L-32.68 50.32 L-30.44 39.67 L-40.15 44.59 L-44.59 40.15 L-39.67 30.44 L-50.32 32.68 L-53.46 27.24 L-46.19 19.13 L-57.06 18.54 L-58.69 12.47 L-49.57 6.53 L-59.92 3.14 L-59.92 -3.14 L-49.57 -6.53 L-58.69 -12.47 L-57.06 -18.54 L-46.19 -19.13 L-53.46 -27.24 L-50.32 -32.68 L-39.67 -30.44 L-44.59 -40.15 L-40.15 -44.59 L-30.44 -39.67 L-32.68 -50.32 L-27.24 -53.46 L-19.13 -46.19 L-18.54 -57.06 L-12.47 -58.69 L-6.53 -49.57 L-3.14 -59.92 L3.14 -59.92 L6.53 -49.57 L12.47 -58.69 L18.54 -57.06 L19.13 -46.19 L27.24 -53.46 L32.68 -50.32 L30.44 -39.67 L40.15 -44.59 L44.59 -40.15 L39.67 -30.44 L50.32 -32.68 L53.46 -27.24 L46.19 -19.13 L57.06 -18.54 L58.69 -12.47 Z" fill="none" stroke="#c4a44a" stroke-width="1.1"/><circle r="48" fill="none" stroke="#b08e3e" stroke-width="0.7"/><path d="M8.0 0.0 L40.0 0.0 M4.0 6.9 L20.0 34.6 M-4.0 6.9 L-20.0 34.6 M-8.0 0.0 L-40.0 0.0 M-4.0 -6.9 L-20.0 -34.6 M4.0 -6.9 L20.0 -34.6" fill="none" stroke="#a8863a" stroke-width="0.7"/><circle r="8" fill="none" stroke="#c4a44a" stroke-width="0.8"/></g><g transform="translate(30 30)"><path d="M11.59 -3.11 L15.91 -1.67 L15.91 1.67 L11.59 3.11 L14.62 6.51 L12.94 9.4 L8.49 8.49 L9.4 12.94 L6.51 14.62 L3.11 11.59 L1.67 15.91 L-1.67 15.91 L-3.11 11.59 L-6.51 14.62 L-9.4 12.94 L-8.49 8.49 L-12.94 9.4 L-14.62 6.51 L-11.59 3.11 L-15.91 1.67 L-15.91 -1.67 L-11.59 -3.11 L-14.62 -6.51 L-12.94 -9.4 L-8.49 -8.49 L-9.4 -12.94 L-6.51 -14.62 L-3.11 -11.59 L-1.67 -15.91 L1.67 -15.91 L3.11 -11.59 L6.51 -14.62 L9.4 -12.94 L8.49 -8.49 L12.94 -9.4 L14.62 -6.51 Z" fill="none" stroke="#8a6c2e" stroke-width="0.8"/></g><g transform="translate(210 30)"><path d="M11.59 -3.11 L15.91 -1.67 L15.91 1.67 L11.59 3.11 L14.62 6.51 L12.94 9.4 L8.49 8.49 L9.4 12.94 L6.51 14.62 L3.11 11.59 L1.67 15.91 L-1.67 15.91 L-3.11 11.59 L-6.51 14.62 L-9.4 12.94 L-8.49 8.49 L-12.94 9.4 L-14.62 6.51 L-11.59 3.11 L-15.91 1.67 L-15.91 -1.67 L-11.59 -3.11 L-14.62 -6.51 L-12.94 -9.4 L-8.49 -8.49 L-9.4 -12.94 L-6.51 -14.62 L-3.11 -11.59 L-1.67 -15.91 L1.67 -15.91 L3.11 -11.59 L6.51 -14.62 L9.4 -12.94 L8.49 -8.49 L12.94 -9.4 L14.62 -6.51 Z" fill="none" stroke="#8a6c2e" stroke-width="0.8"/></g><g transform="translate(30 210)"><path d="M11.59 -3.11 L15.91 -1.67 L15.91 1.67 L11.59 3.11 L14.62 6.51 L12.94 9.4 L8.49 8.49 L9.4 12.94 L6.51 14.62 L3.11 11.59 L1.67 15.91 L-1.67 15.91 L-3.11 11.59 L-6.51 14.62 L-9.4 12.94 L-8.49 8.49 L-12.94 9.4 L-14.62 6.51 L-11.59 3.11 L-15.91 1.67 L-15.91 -1.67 L-11.59 -3.11 L-14.62 -6.51 L-12.94 -9.4 L-8.49 -8.49 L-9.4 -12.94 L-6.51 -14.62 L-3.11 -11.59 L-1.67 -15.91 L1.67 -15.91 L3.11 -11.59 L6.51 -14.62 L9.4 -12.94 L8.49 -8.49 L12.94 -9.4 L14.62 -6.51 Z" fill="none" stroke="#8a6c2e" stroke-width="0.8"/></g><g transform="translate(210 210)"><path d="M11.59 -3.11 L15.91 -1.67 L15.91 1.67 L11.59 3.11 L14.62 6.51 L12.94 9.4 L8.49 8.49 L9.4 12.94 L6.51 14.62 L3.11 11.59 L1.67 15.91 L-1.67 15.91 L-3.11 11.59 L-6.51 14.62 L-9.4 12.94 L-8.49 8.49 L-12.94 9.4 L-14.62 6.51 L-11.59 3.11 L-15.91 1.67 L-15.91 -1.67 L-11.59 -3.11 L-14.62 -6.51 L-12.94 -9.4 L-8.49 -8.49 L-9.4 -12.94 L-6.51 -14.62 L-3.11 -11.59 L-1.67 -15.91 L1.67 -15.91 L3.11 -11.59 L6.51 -14.62 L9.4 -12.94 L8.49 -8.49 L12.94 -9.4 L14.62 -6.51 Z" fill="none" stroke="#8a6c2e" stroke-width="0.8"/></g><g transform="translate(120 120)"><path d="M49.57 -6.53 L59.92 -3.14 L59.92 3.14 L49.57 6.53 L58.69 12.47 L57.06 18.54 L46.19 19.13 L53.46 27.24 L50.32 32.68 L39.67 30.44 L44.59 40.15 L40.15 44.59 L30.44 39.67 L32.68 50.32 L27.24 53.46 L19.13 46.19 L18.54 57.06 L12.47 58.69 L6.53 49.57 L3.14 59.92 L-3.14 59.92 L-6.53 49.57 L-12.47 58.69 L-18.54 57.06 L-19.13 46.19 L-27.24 53.46 L-32.68 50.32 L-30.44 39.67 L-40.15 44.59 L-44.59 40.15 L-39.67 30.44 L-50.32 32.68 L-53.46 27.24 L-46.19 19.13 L-57.06 18.54 L-58.69 12.47 L-49.57 6.53 L-59.92 3.14 L-59.92 -3.14 L-49.57 -6.53 L-58.69 -12.47 L-57.06 -18.54 L-46.19 -19.13 L-53.46 -27.24 L-50.32 -32.68 L-39.67 -30.44 L-44.59 -40.15 L-40.15 -44.59 L-30.44 -39.67 L-32.68 -50.32 L-27.24 -53.46 L-19.13 -46.19 L-18.54 -57.06 L-12.47 -58.69 L-6.53 -49.57 L-3.14 -59.92 L3.14 -59.92 L6.53 -49.57 L12.47 -58.69 L18.54 -57.06 L19.13 -46.19 L27.24 -53.46 L32.68 -50.32 L30.44 -39.67 L40.15 -44.59 L44.59 -40.15 L39.67 -30.44 L50.32 -32.68 L53.46 -27.24 L46.19 -19.13 L57.06 -18.54 L58.69 -12.47 Z" fill="none" stroke="url(#rim)" stroke-width="1.7"/><circle r="48" fill="none" stroke="#d4b25e" stroke-width="1"/><g fill="none" stroke="#cba85c" stroke-width="0.9" stroke-opacity="0.95"><line x1="38.0" y1="0.0" x2="45.0" y2="0.0"/><line x1="32.9" y1="19.0" x2="39.0" y2="22.5"/><line x1="19.0" y1="32.9" x2="22.5" y2="39.0"/><line x1="0.0" y1="38.0" x2="0.0" y2="45.0"/><line x1="-19.0" y1="32.9" x2="-22.5" y2="39.0"/><line x1="-32.9" y1="19.0" x2="-39.0" y2="22.5"/><line x1="-38.0" y1="0.0" x2="-45.0" y2="0.0"/><line x1="-32.9" y1="-19.0" x2="-39.0" y2="-22.5"/><line x1="-19.0" y1="-32.9" x2="-22.5" y2="-39.0"/><line x1="-0.0" y1="-38.0" x2="-0.0" y2="-45.0"/><line x1="19.0" y1="-32.9" x2="22.5" y2="-39.0"/><line x1="32.9" y1="-19.0" x2="39.0" y2="-22.5"/></g><g fill="none" stroke="#c4a44a" stroke-width="0.6" stroke-opacity="0.6"><line x1="37.7" y1="10.1" x2="40.6" y2="10.9"/><line x1="27.6" y1="27.6" x2="29.7" y2="29.7"/><line x1="10.1" y1="37.7" x2="10.9" y2="40.6"/><line x1="-10.1" y1="37.7" x2="-10.9" y2="40.6"/><line x1="-27.6" y1="27.6" x2="-29.7" y2="29.7"/><line x1="-37.7" y1="10.1" x2="-40.6" y2="10.9"/><line x1="-37.7" y1="-10.1" x2="-40.6" y2="-10.9"/><line x1="-27.6" y1="-27.6" x2="-29.7" y2="-29.7"/><line x1="-10.1" y1="-37.7" x2="-10.9" y2="-40.6"/><line x1="10.1" y1="-37.7" x2="10.9" y2="-40.6"/><line x1="27.6" y1="-27.6" x2="29.7" y2="-29.7"/><line x1="37.7" y1="-10.1" x2="40.6" y2="-10.9"/></g><circle r="22" fill="none" stroke="#d4b25e" stroke-width="1"/><polygon points="0,-22 19,-11 19,11 0,22 -19,11 -19,-11" fill="none" stroke="#b9933f" stroke-width="0.7"/><circle r="13" fill="url(#core)" stroke="#e4c878" stroke-width="1.1"/><path d="M0 -13 L3.4 -3.4 L13 0 L3.4 3.4 L0 13 L-3.4 3.4 L-13 0 L-3.4 -3.4 Z" fill="none" stroke="#3fd0e0" stroke-width="0.9"/><circle r="4" fill="none" stroke="#e4c878" stroke-width="0.8"/><g stroke="#3fd0e0" stroke-width="0.9" fill="none" stroke-opacity="0.9"><line x1="14" y1="0" x2="58" y2="0"/><line x1="-14" y1="0" x2="-58" y2="0"/><line x1="0" y1="-14" x2="0" y2="-58"/><line x1="0" y1="14" x2="0" y2="58"/></g></g><g stroke="#3fd0e0" stroke-width="0.7" fill="none" stroke-opacity="0.7"><line x1="110.1" y1="110.1" x2="78.4" y2="78.4"/><line x1="129.9" y1="110.1" x2="161.6" y2="78.4"/><line x1="110.1" y1="129.9" x2="78.4" y2="161.6"/><line x1="129.9" y1="129.9" x2="161.6" y2="161.6"/></g><g fill="#3fd0e0"><circle cx="60" cy="120" r="2.6"/><circle cx="180" cy="120" r="2.6"/><circle cx="120" cy="60" r="2.6"/><circle cx="120" cy="180" r="2.6"/><circle cx="60" cy="0" r="2"/><circle cx="180" cy="0" r="2"/><circle cx="60" cy="240" r="2"/><circle cx="180" cy="240" r="2"/><circle cx="0" cy="60" r="2"/><circle cx="0" cy="180" r="2"/><circle cx="240" cy="60" r="2"/><circle cx="240" cy="180" r="2"/></g><circle cx="120" cy="120" r="2" fill="#3fd0e0"/></svg>
    </pattern>
  </defs>
  <rect width="1200" height="800" fill="url(#native-texture)" opacity="0.56"/>
  <rect width="1200" height="800" fill="url(#native-pattern)" opacity="0.12"/>
</svg>
