<svg xmlns="http://www.w3.org/2000/svg" width="1200" height="800" viewBox="0 0 1200 800">
  <defs>
    <pattern id="native-texture" width="320" height="320" patternUnits="userSpaceOnUse">
      <svg xmlns="http://www.w3.org/2000/svg" width="320" height="320" viewBox="0 0 320 320"><defs><linearGradient id="facetA" x1="0" y1="0" x2="1" y2="1"><stop offset="0" stop-color="#f3dcd8" stop-opacity="0.05"/><stop offset="1" stop-color="#000000" stop-opacity="0.22"/></linearGradient><linearGradient id="facetB" x1="1" y1="0" x2="0" y2="1"><stop offset="0" stop-color="#ff7a4d" stop-opacity="0.05"/><stop offset="1" stop-color="#000000" stop-opacity="0.18"/></linearGradient><filter id="shimmer" x="0" y="0" width="100%" height="100%"><feTurbulence type="fractalNoise" baseFrequency="0.012 0.05" numOctaves="2" seed="7" stitchTiles="stitch" result="n"/><feColorMatrix in="n" type="matrix" values="0 0 0 0 1 0 0 0 0 0.45 0 0 0 0 0.22 0 0 0 0.04 0"/></filter></defs><g stroke="none"><polygon points="0,0 132,0 60,86 0,52" fill="url(#facetA)"/><polygon points="132,0 232,0 196,70 60,86" fill="url(#facetB)"/><polygon points="232,0 320,0 320,64 196,70" fill="url(#facetA)"/><polygon points="0,52 60,86 30,182 0,150" fill="url(#facetB)"/><polygon points="196,70 320,64 320,176 240,168" fill="url(#facetB)"/><polygon points="60,86 196,70 240,168 120,196 30,182" fill="url(#facetA)"/><polygon points="0,150 30,182 70,300 0,320" fill="url(#facetA)"/><polygon points="120,196 240,168 320,176 320,320 210,320" fill="url(#facetB)"/><polygon points="30,182 120,196 210,320 70,300" fill="url(#facetB)"/></g><g fill="none" stroke="#000000" stroke-opacity="0.34" stroke-width="0.8"><polyline points="0,52 60,86 196,70 320,64"/><polyline points="60,86 30,182 120,196 240,168 196,70"/><polyline points="0,150 30,182 70,300"/><polyline points="120,196 210,320"/><polyline points="240,168 320,176"/></g><g fill="none" stroke="#ff7a4d" stroke-opacity="0.10" stroke-width="0.6"><polyline points="0,53 60,87 196,71 320,65"/><polyline points="61,87 31,183 121,197 241,169"/></g><rect x="0" y="0" width="320" height="320" filter="url(#shimmer)" opacity="0.5"/></svg>
    </pattern>
    <pattern id="native-pattern" width="360" height="180" patternUnits="userSpaceOnUse">
      <svg xmlns="http://www.w3.org/2000/svg" width="360" height="180" viewBox="0 0 360 180"><defs><radialGradient id="emberGlow" cx="0.5" cy="0.5" r="0.5"><stop offset="0" stop-color="#ff8a50" stop-opacity="1"/><stop offset="0.5" stop-color="#ff5a2c" stop-opacity="0.9"/><stop offset="1" stop-color="#ff5a2c" stop-opacity="0"/></radialGradient><linearGradient id="moltenStroke" x1="0" y1="0" x2="0" y2="1"><stop offset="0" stop-color="#ff7a4d"/><stop offset="1" stop-color="#ff5a2c"/></linearGradient></defs><g stroke-linecap="round" stroke-linejoin="round"><g fill="none" stroke="#3e1614" stroke-width="1"><line x1="0" y1="36" x2="360" y2="36"/><line x1="0" y1="144" x2="360" y2="144"/></g><g fill="none" stroke="#ff5a2c" stroke-opacity="0.5" stroke-width="0.7"><line x1="0" y1="37.2" x2="360" y2="37.2"/><line x1="0" y1="145.2" x2="360" y2="145.2"/></g><g fill="none" stroke="url(#moltenStroke)" stroke-width="1.25"><polyline points="22,116 22,64 36,58"/><polyline points="22,90 34,96 34,108"/></g><circle cx="62" cy="90" r="2.4" fill="#ff8a50" stroke="none"/><g fill="none" stroke="url(#moltenStroke)" stroke-width="1.25"><polyline points="86,116 86,68 102,64 100,82 86,86"/><circle cx="93" cy="74" r="1.6" fill="#ff8a50" stroke="none"/></g><g fill="none" stroke="url(#moltenStroke)" stroke-width="1.25"><polyline points="124,64 124,116"/><polyline points="124,84 142,72 142,100 124,108"/></g><circle cx="160" cy="90" r="2.4" fill="#ff8a50" stroke="none"/><circle cx="180" cy="90" r="14" fill="url(#emberGlow)" stroke="none"/><g fill="none" stroke="url(#moltenStroke)" stroke-width="1.4"><polygon points="180,73 195,81.5 195,98.5 180,107 165,98.5 165,81.5"/><polygon points="180,80 189,85 189,95 180,100 171,95 171,85"/></g><g stroke="none"><circle cx="180" cy="90" r="2.6" fill="#ff8a50"/><path d="M180,80 A9,9 0 0 1 189,89" fill="none" stroke="#ffd0b0" stroke-opacity="0.55" stroke-width="0.9"/><path d="M180,100 A9,9 0 0 1 171,91" fill="none" stroke="#000000" stroke-opacity="0.45" stroke-width="0.9"/></g><g fill="none" stroke="url(#moltenStroke)" stroke-width="1.25"><line x1="180" y1="59" x2="180" y2="46"/><polyline points="174,52 180,46 186,52"/><line x1="180" y1="121" x2="180" y2="134"/><polyline points="174,128 180,134 186,128"/></g><g fill="none" stroke="url(#moltenStroke)" stroke-width="1.25"><polyline points="218,68 234,64 234,116"/><polyline points="218,92 230,92"/></g><circle cx="256" cy="90" r="2.4" fill="#ff8a50" stroke="none"/><g fill="none" stroke="url(#moltenStroke)" stroke-width="1.25"><polyline points="280,116 280,64"/><polyline points="280,72 296,64 296,86 282,90"/><polyline points="290,90 298,116"/></g><circle cx="318" cy="90" r="2.4" fill="#ff8a50" stroke="none"/><g fill="none" stroke="url(#moltenStroke)" stroke-width="1.25"><polyline points="338,64 338,116"/><polyline points="338,82 354,70 354,72"/><polyline points="338,98 352,108 352,110"/></g><g fill="#ff8a50" stroke="none"><circle cx="180" cy="20" r="1.6"/><circle cx="0" cy="20" r="1.6"/><circle cx="360" cy="20" r="1.6"/><circle cx="180" cy="160" r="1.6"/><circle cx="0" cy="160" r="1.6"/><circle cx="360" cy="160" r="1.6"/></g><g fill="none" stroke="#3e1614" stroke-width="0.8"><polyline points="0,20 14,20"/><polyline points="346,20 360,20"/><polyline points="166,20 194,20"/><polyline points="0,160 14,160"/><polyline points="346,160 360,160"/><polyline points="166,160 194,160"/></g></g></svg>
    </pattern>
  </defs>
  <rect width="1200" height="800" fill="url(#native-texture)" opacity="0.56"/>
  <rect width="1200" height="800" fill="url(#native-pattern)" opacity="0.12"/>
</svg>
