<svg xmlns="http://www.w3.org/2000/svg" width="1200" height="800" viewBox="0 0 1200 800">
  <defs>
    <pattern id="native-texture" width="180" height="180" patternUnits="userSpaceOnUse">
      <svg xmlns="http://www.w3.org/2000/svg" width="180" height="180" viewBox="0 0 180 180"><defs><filter id="brush" x="0" y="0" width="100%" height="100%"><feTurbulence type="fractalNoise" baseFrequency="0.009 0.16" numOctaves="2" seed="7" stitchTiles="stitch" result="n"/><feColorMatrix in="n" type="matrix" values="0 0 0 0 0.83 0 0 0 0 0.64 0 0 0 0 0.24 0 0 0 0.5 0"/></filter><filter id="grain" x="0" y="0" width="100%" height="100%"><feTurbulence type="fractalNoise" baseFrequency="0.9" numOctaves="2" seed="3" stitchTiles="stitch" result="g"/><feColorMatrix in="g" type="matrix" values="0 0 0 0 0.1 0 0 0 0 0.09 0 0 0 0 0.05 0 0 0 0.4 0"/></filter></defs><rect width="180" height="180" filter="url(#brush)"/><rect width="180" height="180" filter="url(#grain)"/></svg>
    </pattern>
    <pattern id="native-pattern" width="240" height="240" patternUnits="userSpaceOnUse">
      <svg xmlns="http://www.w3.org/2000/svg" width="240" height="240" viewBox="0 0 240 240"><g fill="none" stroke="#d4a23c" stroke-width="0.7" opacity="0.7"><path d="M 187.8,162.4 A 80,80 0 0 1 162.4,187.8 M 192.9,165.6 A 86,86 0 0 1 165.6,192.9 M 77.6,187.8 A 80,80 0 0 1 52.2,162.4 M 74.4,192.9 A 86,86 0 0 1 47.1,165.6 M 52.2,77.6 A 80,80 0 0 1 77.6,52.2 M 47.1,74.4 A 86,86 0 0 1 74.4,47.1 M 162.4,52.2 A 80,80 0 0 1 187.8,77.6 M 165.6,47.1 A 86,86 0 0 1 192.9,74.4"/></g><g fill="#5fd4b0" opacity="0.55"><circle cx="195.2" cy="174.7" r="1.1"/><circle cx="185.8" cy="185.8" r="1.1"/><circle cx="174.7" cy="195.2" r="1.1"/><circle cx="65.3" cy="195.2" r="1.1"/><circle cx="54.2" cy="185.8" r="1.1"/><circle cx="44.8" cy="174.7" r="1.1"/><circle cx="44.8" cy="65.3" r="1.1"/><circle cx="54.2" cy="54.2" r="1.1"/><circle cx="65.3" cy="44.8" r="1.1"/><circle cx="174.7" cy="44.8" r="1.1"/><circle cx="185.8" cy="54.2" r="1.1"/><circle cx="195.2" cy="65.3" r="1.1"/></g><g fill="none" stroke="#d4a23c" stroke-width="1.2" stroke-linejoin="round"><path d="M 180.7,120.0 L 191.2,124.1 L 190.8,127.8 L 179.9,130.1 L 178.7,135.7 L 187.7,142.4 L 186.4,145.9 L 175.2,145.3 L 172.6,150.4 L 179.6,159.1 L 177.4,162.2 L 166.8,158.7 L 162.9,162.9 L 167.4,173.2 L 164.6,175.6 L 155.2,169.5 L 150.4,172.6 L 152.0,183.7 L 148.7,185.3 L 141.2,176.9 L 135.7,178.7 L 134.5,189.8 L 130.8,190.5 L 125.7,180.5 L 120.0,180.7 L 115.9,191.2 L 112.2,190.8 L 109.9,179.9 L 104.3,178.7 L 97.6,187.7 L 94.1,186.4 L 94.7,175.2 L 89.6,172.6 L 80.9,179.6 L 77.8,177.4 L 81.3,166.8 L 77.1,162.9 L 66.8,167.4 L 64.4,164.6 L 70.5,155.2 L 67.4,150.4 L 56.3,152.0 L 54.7,148.7 L 63.1,141.2 L 61.3,135.7 L 50.2,134.5 L 49.5,130.8 L 59.5,125.7 L 59.3,120.0 L 48.8,115.9 L 49.2,112.2 L 60.1,109.9 L 61.3,104.3 L 52.3,97.6 L 53.6,94.1 L 64.8,94.7 L 67.4,89.6 L 60.4,80.9 L 62.6,77.8 L 73.2,81.3 L 77.1,77.1 L 72.6,66.8 L 75.4,64.4 L 84.8,70.5 L 89.6,67.4 L 88.0,56.3 L 91.3,54.7 L 98.8,63.1 L 104.3,61.3 L 105.5,50.2 L 109.2,49.5 L 114.3,59.5 L 120.0,59.3 L 124.1,48.8 L 127.8,49.2 L 130.1,60.1 L 135.7,61.3 L 142.4,52.3 L 145.9,53.6 L 145.3,64.8 L 150.4,67.4 L 159.1,60.4 L 162.2,62.6 L 158.7,73.2 L 162.9,77.1 L 173.2,72.6 L 175.6,75.4 L 169.5,84.8 L 172.6,89.6 L 183.7,88.0 L 185.3,91.3 L 176.9,98.8 L 178.7,104.3 L 189.8,105.5 L 190.5,109.2 L 180.5,114.3 Z"/></g><g fill="none" stroke="#d4a23c" stroke-width="1.0" stroke-linejoin="round"><path d="M 169.1,7.8 L 176.8,13.1 L 175.9,16.6 L 166.5,17.4 L 164.3,22.6 L 170.0,30.0 L 168.0,33.1 L 158.9,30.9 L 155.1,35.1 L 158.3,44.0 L 155.5,46.3 L 147.4,41.4 L 142.6,44.3 L 142.8,53.7 L 139.4,55.0 L 133.3,47.9 L 127.8,49.1 L 125.1,58.1 L 121.5,58.3 L 117.8,49.6 L 112.2,49.1 L 106.9,56.8 L 103.4,55.9 L 102.6,46.5 L 97.4,44.3 L 90.0,50.0 L 86.9,48.0 L 89.1,38.9 L 84.9,35.1 L 76.0,38.3 L 73.7,35.5 L 78.6,27.4 L 75.7,22.6 L 66.3,22.8 L 65.0,19.4 L 72.1,13.3 L 70.9,7.8 L 61.9,5.1 L 61.7,1.5 L 70.4,-2.2 L 70.9,-7.8 L 63.2,-13.1 L 64.1,-16.6 L 73.5,-17.4 L 75.7,-22.6 L 70.0,-30.0 L 72.0,-33.1 L 81.1,-30.9 L 84.9,-35.1 L 81.7,-44.0 L 84.5,-46.3 L 92.6,-41.4 L 97.4,-44.3 L 97.2,-53.7 L 100.6,-55.0 L 106.7,-47.9 L 112.2,-49.1 L 114.9,-58.1 L 118.5,-58.3 L 122.2,-49.6 L 127.8,-49.1 L 133.1,-56.8 L 136.6,-55.9 L 137.4,-46.5 L 142.6,-44.3 L 150.0,-50.0 L 153.1,-48.0 L 150.9,-38.9 L 155.1,-35.1 L 164.0,-38.3 L 166.3,-35.5 L 161.4,-27.4 L 164.3,-22.6 L 173.7,-22.8 L 175.0,-19.4 L 167.9,-13.3 L 169.1,-7.8 L 178.1,-5.1 L 178.3,-1.5 L 169.6,2.2 Z"/><circle cx="120" cy="0" r="9"/><circle cx="120" cy="0" r="4"/><path d="M 126.4,6.4 L 141.2,21.2 M 113.6,6.4 L 98.8,21.2 M 113.6,-6.4 L 98.8,-21.2 M 126.4,-6.4 L 141.2,-21.2"/><path d="M 169.1,247.8 L 176.8,253.1 L 175.9,256.6 L 166.5,257.4 L 164.3,262.6 L 170.0,270.0 L 168.0,273.1 L 158.9,270.9 L 155.1,275.1 L 158.3,284.0 L 155.5,286.3 L 147.4,281.4 L 142.6,284.3 L 142.8,293.7 L 139.4,295.0 L 133.3,287.9 L 127.8,289.1 L 125.1,298.1 L 121.5,298.3 L 117.8,289.6 L 112.2,289.1 L 106.9,296.8 L 103.4,295.9 L 102.6,286.5 L 97.4,284.3 L 90.0,290.0 L 86.9,288.0 L 89.1,278.9 L 84.9,275.1 L 76.0,278.3 L 73.7,275.5 L 78.6,267.4 L 75.7,262.6 L 66.3,262.8 L 65.0,259.4 L 72.1,253.3 L 70.9,247.8 L 61.9,245.1 L 61.7,241.5 L 70.4,237.8 L 70.9,232.2 L 63.2,226.9 L 64.1,223.4 L 73.5,222.6 L 75.7,217.4 L 70.0,210.0 L 72.0,206.9 L 81.1,209.1 L 84.9,204.9 L 81.7,196.0 L 84.5,193.7 L 92.6,198.6 L 97.4,195.7 L 97.2,186.3 L 100.6,185.0 L 106.7,192.1 L 112.2,190.9 L 114.9,181.9 L 118.5,181.7 L 122.2,190.4 L 127.8,190.9 L 133.1,183.2 L 136.6,184.1 L 137.4,193.5 L 142.6,195.7 L 150.0,190.0 L 153.1,192.0 L 150.9,201.1 L 155.1,204.9 L 164.0,201.7 L 166.3,204.5 L 161.4,212.6 L 164.3,217.4 L 173.7,217.2 L 175.0,220.6 L 167.9,226.7 L 169.1,232.2 L 178.1,234.9 L 178.3,238.5 L 169.6,242.2 Z"/><circle cx="120" cy="240" r="9"/><circle cx="120" cy="240" r="4"/><path d="M 126.4,246.4 L 141.2,261.2 M 113.6,246.4 L 98.8,261.2 M 113.6,233.6 L 98.8,218.8 M 126.4,233.6 L 141.2,218.8"/><path d="M 49.1,127.8 L 56.8,133.1 L 55.9,136.6 L 46.5,137.4 L 44.3,142.6 L 50.0,150.0 L 48.0,153.1 L 38.9,150.9 L 35.1,155.1 L 38.3,164.0 L 35.5,166.3 L 27.4,161.4 L 22.6,164.3 L 22.8,173.7 L 19.4,175.0 L 13.3,167.9 L 7.8,169.1 L 5.1,178.1 L 1.5,178.3 L -2.2,169.6 L -7.8,169.1 L -13.1,176.8 L -16.6,175.9 L -17.4,166.5 L -22.6,164.3 L -30.0,170.0 L -33.1,168.0 L -30.9,158.9 L -35.1,155.1 L -44.0,158.3 L -46.3,155.5 L -41.4,147.4 L -44.3,142.6 L -53.7,142.8 L -55.0,139.4 L -47.9,133.3 L -49.1,127.8 L -58.1,125.1 L -58.3,121.5 L -49.6,117.8 L -49.1,112.2 L -56.8,106.9 L -55.9,103.4 L -46.5,102.6 L -44.3,97.4 L -50.0,90.0 L -48.0,86.9 L -38.9,89.1 L -35.1,84.9 L -38.3,76.0 L -35.5,73.7 L -27.4,78.6 L -22.6,75.7 L -22.8,66.3 L -19.4,65.0 L -13.3,72.1 L -7.8,70.9 L -5.1,61.9 L -1.5,61.7 L 2.2,70.4 L 7.8,70.9 L 13.1,63.2 L 16.6,64.1 L 17.4,73.5 L 22.6,75.7 L 30.0,70.0 L 33.1,72.0 L 30.9,81.1 L 35.1,84.9 L 44.0,81.7 L 46.3,84.5 L 41.4,92.6 L 44.3,97.4 L 53.7,97.2 L 55.0,100.6 L 47.9,106.7 L 49.1,112.2 L 58.1,114.9 L 58.3,118.5 L 49.6,122.2 Z"/><circle cx="0" cy="120" r="9"/><circle cx="0" cy="120" r="4"/><path d="M 6.4,126.4 L 21.2,141.2 M -6.4,126.4 L -21.2,141.2 M -6.4,113.6 L -21.2,98.8 M 6.4,113.6 L 21.2,98.8"/><path d="M 289.1,127.8 L 296.8,133.1 L 295.9,136.6 L 286.5,137.4 L 284.3,142.6 L 290.0,150.0 L 288.0,153.1 L 278.9,150.9 L 275.1,155.1 L 278.3,164.0 L 275.5,166.3 L 267.4,161.4 L 262.6,164.3 L 262.8,173.7 L 259.4,175.0 L 253.3,167.9 L 247.8,169.1 L 245.1,178.1 L 241.5,178.3 L 237.8,169.6 L 232.2,169.1 L 226.9,176.8 L 223.4,175.9 L 222.6,166.5 L 217.4,164.3 L 210.0,170.0 L 206.9,168.0 L 209.1,158.9 L 204.9,155.1 L 196.0,158.3 L 193.7,155.5 L 198.6,147.4 L 195.7,142.6 L 186.3,142.8 L 185.0,139.4 L 192.1,133.3 L 190.9,127.8 L 181.9,125.1 L 181.7,121.5 L 190.4,117.8 L 190.9,112.2 L 183.2,106.9 L 184.1,103.4 L 193.5,102.6 L 195.7,97.4 L 190.0,90.0 L 192.0,86.9 L 201.1,89.1 L 204.9,84.9 L 201.7,76.0 L 204.5,73.7 L 212.6,78.6 L 217.4,75.7 L 217.2,66.3 L 220.6,65.0 L 226.7,72.1 L 232.2,70.9 L 234.9,61.9 L 238.5,61.7 L 242.2,70.4 L 247.8,70.9 L 253.1,63.2 L 256.6,64.1 L 257.4,73.5 L 262.6,75.7 L 270.0,70.0 L 273.1,72.0 L 270.9,81.1 L 275.1,84.9 L 284.0,81.7 L 286.3,84.5 L 281.4,92.6 L 284.3,97.4 L 293.7,97.2 L 295.0,100.6 L 287.9,106.7 L 289.1,112.2 L 298.1,114.9 L 298.3,118.5 L 289.6,122.2 Z"/><circle cx="240" cy="120" r="9"/><circle cx="240" cy="120" r="4"/><path d="M 246.4,126.4 L 261.2,141.2 M 233.6,126.4 L 218.8,141.2 M 233.6,113.6 L 218.8,98.8 M 246.4,113.6 L 261.2,98.8"/></g><g fill="none" stroke="#d4a23c"><circle cx="120" cy="120" r="58" stroke-width="0.7"/><path d="M 120.0,67.5 L 120.0,61.5 M 146.2,74.5 L 149.2,69.3 M 165.5,93.8 L 170.7,90.8 M 172.5,120.0 L 178.5,120.0 M 165.5,146.2 L 170.7,149.2 M 146.2,165.5 L 149.2,170.7 M 120.0,172.5 L 120.0,178.5 M 93.8,165.5 L 90.8,170.7 M 74.5,146.2 L 69.3,149.2 M 67.5,120.0 L 61.5,120.0 M 74.5,93.8 L 69.3,90.8 M 93.7,74.5 L 90.7,69.3" stroke-width="1.0"/><path d="M 127.2,65.0 L 127.6,62.5 M 134.4,66.4 L 135.0,64.0 M 141.2,68.7 L 142.2,66.4 M 153.8,76.0 L 155.3,74.0 M 159.2,80.8 L 161.0,79.0 M 164.0,86.2 L 166.0,84.7 M 171.3,98.8 L 173.6,97.8 M 173.6,105.6 L 176.0,105.0 M 175.0,112.8 L 177.5,112.4 M 175.0,127.2 L 177.5,127.6 M 173.6,134.4 L 176.0,135.0 M 171.3,141.2 L 173.6,142.2 M 164.0,153.8 L 166.0,155.3 M 159.2,159.2 L 161.0,161.0 M 153.8,164.0 L 155.3,166.0 M 141.2,171.3 L 142.2,173.6 M 134.4,173.6 L 135.0,176.0 M 127.2,175.0 L 127.6,177.5 M 112.8,175.0 L 112.4,177.5 M 105.6,173.6 L 105.0,176.0 M 98.8,171.3 L 97.8,173.6 M 86.2,164.0 L 84.7,166.0 M 80.8,159.2 L 79.0,161.0 M 76.0,153.8 L 74.0,155.3 M 68.7,141.2 L 66.4,142.2 M 66.4,134.4 L 64.0,135.0 M 65.0,127.2 L 62.5,127.6 M 65.0,112.8 L 62.5,112.4 M 66.4,105.6 L 64.0,105.0 M 68.7,98.8 L 66.4,97.8 M 76.0,86.2 L 74.0,84.7 M 80.8,80.8 L 79.0,79.0 M 86.2,76.0 L 84.7,74.0 M 98.8,68.7 L 97.8,66.4 M 105.6,66.4 L 105.0,64.0 M 112.8,65.0 L 112.4,62.5" stroke-width="0.7"/><circle cx="120" cy="120" r="53" stroke-width="0.8"/><circle cx="120" cy="120" r="38" stroke-width="1.0"/></g><path d="M 116.3,60.1 L 120.0,70.0 L 123.7,60.1 Z" fill="#5fd4b0" stroke="none" opacity="0.85"/><g fill="none" stroke="#5fd4b0" stroke-width="1.1"><circle cx="120" cy="120" r="22" stroke-dasharray="2.0 4.0"/><circle cx="120" cy="120" r="11"/></g><g fill="none" stroke="#d4a23c" stroke-width="1.1" stroke-linejoin="round"><path d="M 124.3,122.5 L 120.0,125.0 L 115.7,122.5 L 115.7,117.5 L 120.0,115.0 L 124.3,117.5 Z"/><path d="M 120.0,115.0 L 120.0,112.0 M 124.3,122.5 L 126.9,124.0 M 115.7,122.5 L 113.1,124.0"/></g><g fill="#bda878" opacity="0.9"><circle cx="147.7" cy="131.5" r="1.5"/><circle cx="131.5" cy="147.7" r="1.5"/><circle cx="108.5" cy="147.7" r="1.5"/><circle cx="92.3" cy="131.5" r="1.5"/><circle cx="92.3" cy="108.5" r="1.5"/><circle cx="108.5" cy="92.3" r="1.5"/><circle cx="131.5" cy="92.3" r="1.5"/><circle cx="147.7" cy="108.5" r="1.5"/></g><g fill="none" stroke="#5fd4b0" stroke-width="0.7" opacity="0.9"><path d="M 113.1,54.4 A 66,66 0 0 1 126.9,54.4"/><path d="M 185.6,113.1 A 66,66 0 0 1 185.6,126.9"/><path d="M 126.9,185.6 A 66,66 0 0 1 113.1,185.6"/><path d="M 54.4,126.9 A 66,66 0 0 1 54.4,113.1"/></g><g fill="none" stroke="#ecdcb4" stroke-width="1.1" stroke-linejoin="round" stroke-linecap="square" opacity="0.92"><path d="M 69.0,66.0 L 69.0,84.0 M 69.0,66.0 L 79.0,66.0 M 79.0,66.0 L 81.0,70.0 M 81.0,70.0 L 81.0,76.0 M 81.0,76.0 L 79.0,80.0 M 79.0,80.0 L 69.0,80.0 M 68.0,84.0 L 80.0,84.0"/><path d="M 159.0,68.0 L 171.0,68.0 M 171.0,68.0 L 159.0,82.0 M 159.0,82.0 L 171.0,82.0 M 164.0,74.0 L 168.0,74.0"/><path d="M 69.0,174.0 L 75.0,156.0 M 75.0,156.0 L 81.0,174.0 M 71.5,166.0 L 78.5,166.0 M 68.0,174.0 L 71.0,174.0 M 79.0,174.0 L 82.0,174.0"/><path d="M 160.0,156.0 L 160.0,174.0 M 160.0,156.0 L 171.0,156.0 M 160.0,165.0 L 169.0,165.0 M 160.0,174.0 L 171.0,174.0 M 171.0,156.0 L 171.0,160.0 M 171.0,174.0 L 171.0,170.0"/></g><g fill="#5fd4b0" opacity="0.8"><circle cx="80" cy="84" r="1.2"/><circle cx="168" cy="82" r="1.2"/><circle cx="82" cy="174" r="1.2"/><circle cx="171" cy="170" r="1.2"/></g><g fill="none" stroke="#5fd4b0" stroke-width="1.1" stroke-linejoin="round"><path d="M 12.1,7.0 L 0.0,14.0 L -12.1,7.0 L -12.1,-7.0 L -0.0,-14.0 L 12.1,-7.0 Z"/><path d="M 252.1,7.0 L 240.0,14.0 L 227.9,7.0 L 227.9,-7.0 L 240.0,-14.0 L 252.1,-7.0 Z"/><path d="M 12.1,247.0 L 0.0,254.0 L -12.1,247.0 L -12.1,233.0 L -0.0,226.0 L 12.1,233.0 Z"/><path d="M 252.1,247.0 L 240.0,254.0 L 227.9,247.0 L 227.9,233.0 L 240.0,226.0 L 252.1,233.0 Z"/><path d="M 6.1,3.5 L 0.0,7.0 L -6.1,3.5 L -6.1,-3.5 L -0.0,-7.0 L 6.1,-3.5 Z"/><path d="M 246.1,3.5 L 240.0,7.0 L 233.9,3.5 L 233.9,-3.5 L 240.0,-7.0 L 246.1,-3.5 Z"/><path d="M 6.1,243.5 L 0.0,247.0 L -6.1,243.5 L -6.1,236.5 L -0.0,233.0 L 6.1,236.5 Z"/><path d="M 246.1,243.5 L 240.0,247.0 L 233.9,243.5 L 233.9,236.5 L 240.0,233.0 L 246.1,236.5 Z"/></g></svg>
    </pattern>
  </defs>
  <rect width="1200" height="800" fill="url(#native-texture)" opacity="0.56"/>
  <rect width="1200" height="800" fill="url(#native-pattern)" opacity="0.12"/>
</svg>
