<svg xmlns="http://www.w3.org/2000/svg" width="1200" height="800" viewBox="0 0 1200 800">
  <defs>
    <pattern id="native-texture" width="200" height="200" patternUnits="userSpaceOnUse">
      <svg xmlns="http://www.w3.org/2000/svg" width="200" height="200" viewBox="0 0 200 200"><defs><filter id="vellum" x="0" y="0" width="100%" height="100%"><feTurbulence type="fractalNoise" baseFrequency="0.65" numOctaves="2" seed="7" stitchTiles="stitch" result="n"/><feColorMatrix in="n" type="matrix" values="0 0 0 0 0.55 0 0 0 0 0.44 0 0 0 0 0.22 0 0 0 0.4 0"/></filter><filter id="fox" x="0" y="0" width="100%" height="100%"><feTurbulence type="fractalNoise" baseFrequency="0.014" numOctaves="3" seed="19" stitchTiles="stitch" result="f"/><feColorMatrix in="f" type="matrix" values="0 0 0 0 0.42 0 0 0 0 0.27 0 0 0 0 0.08 0 0 0 0.7 -0.28"/></filter></defs><rect width="200" height="200" filter="url(#fox)"/><rect width="200" height="200" filter="url(#vellum)" opacity="0.55"/></svg>
    </pattern>
    <pattern id="native-pattern" width="280" height="280" patternUnits="userSpaceOnUse">
      <svg xmlns="http://www.w3.org/2000/svg" width="280" height="280" viewBox="0 0 280 280"><defs><linearGradient id="gleaf" x1="0" y1="0" x2="1" y2="1"><stop offset="0" stop-color="#e8c97a"/><stop offset="1" stop-color="#e0b54a"/></linearGradient></defs><g fill="none" stroke="#e0b54a" stroke-width="1.1" stroke-linecap="round" stroke-linejoin="round"><g stroke="#e8c97a" stroke-width="1.2"><path d="M18 20 L52 20 M228 20 L262 20"/><path d="M18 260 L52 260 M228 260 L262 260"/><path d="M20 18 L20 52 M20 228 L20 262"/><path d="M260 18 L260 52 M260 228 L260 262"/></g><g stroke="#c2a878" stroke-width="0.7" stroke-dasharray="2 5"><path d="M64 24 L216 24"/><path d="M64 256 L216 256"/><path d="M24 64 L24 216"/><path d="M256 64 L256 216"/></g><g stroke="#e8c97a" stroke-width="1"><path d="M20 20 q14 4 18 18 q-14 -4 -18 -18 Z"/><path d="M260 20 q-14 4 -18 18 q14 -4 18 -18 Z"/><path d="M20 260 q14 -4 18 -18 q-14 4 -18 18 Z"/><path d="M260 260 q-14 -4 -18 -18 q14 4 18 18 Z"/></g><g stroke="#c2a878" stroke-width="0.9"><path d="M0 140 q22 -22 46 -6 q20 14 8 34 q-8 14 -26 10 q14 -2 18 -16 q4 -16 -14 -22"/><path d="M46 134 q12 -16 28 -10 q-4 14 -28 10"/><path d="M280 140 q-22 -22 -46 -6 q-20 14 -8 34 q8 14 26 10 q-14 -2 -18 -16 q-4 -16 14 -22"/><path d="M234 134 q-12 -16 -28 -10 q4 14 28 10"/><path d="M232 152 q-9 -3 -14 4"/><path d="M140 0 q-22 22 -6 46 q14 20 34 8 q14 -8 10 -26 q-2 14 -16 18 q-16 4 -22 -14"/><path d="M134 46 q-16 12 -10 28 q14 -4 10 -28"/><path d="M152 48 q-3 9 4 14"/><path d="M140 280 q-22 -22 -6 -46 q14 -20 34 -8 q14 8 10 26 q-2 -14 -16 -18 q-16 -4 -22 14"/><path d="M134 234 q-16 -12 -10 -28 q14 4 10 28"/></g><g stroke="#e0b54a" stroke-width="1.1"><circle cx="140" cy="140" r="38"/><circle cx="140" cy="140" r="30" stroke="#e8c97a" stroke-width="0.7"/></g><g stroke="#e8c97a" stroke-width="0.85"><path d="M140 110 L140 116 M170 130 L165 133 M159 166 L156 161 M110 150 L115 147 M121 114 L124 119"/><path d="M159 114 L156 119 M170 150 L165 147 M140 170 L140 164 M121 166 L124 161 M110 130 L115 133"/></g><g stroke="#e8c97a" stroke-width="0.7"><path d="M148 122 L152 119 L150 124 Z M162 142 L166 142 L162 146 Z M130 159 L126 162 L128 156 Z"/></g><g stroke="#e0b54a" stroke-width="1.1"><circle cx="140" cy="140" r="7" fill="url(#gleaf)" stroke="none"/><circle cx="140" cy="140" r="3.4" fill="#1a1107" stroke="none"/><path d="M118 134 q22 -13 44 0" stroke="#e8c97a" stroke-width="0.7"/></g><g stroke="#e8c97a" stroke-width="1.1"><ellipse cx="102" cy="140" rx="9" ry="30"/><path d="M93 134 L111 134" stroke="#c2a878" stroke-width="0.6"/><path d="M93 146 L111 146" stroke="#c2a878" stroke-width="0.6"/><path d="M93 113 a9 5 0 0 1 18 0 a5 3 0 0 1 -10 0 a2 1.5 0 0 1 4 0" stroke-width="0.85"/><path d="M93 167 a9 5 0 0 0 18 0 a5 3 0 0 0 -10 0 a2 1.5 0 0 0 4 0" stroke-width="0.85"/><ellipse cx="178" cy="140" rx="9" ry="30"/><path d="M169 134 L187 134" stroke="#c2a878" stroke-width="0.6"/><path d="M169 146 L187 146" stroke="#c2a878" stroke-width="0.6"/><path d="M169 113 a9 5 0 0 1 18 0 a5 3 0 0 1 -10 0 a2 1.5 0 0 1 4 0" stroke-width="0.85"/><path d="M169 167 a9 5 0 0 0 18 0 a5 3 0 0 0 -10 0 a2 1.5 0 0 0 4 0" stroke-width="0.85"/></g><g stroke="#c2a878" stroke-width="0.85"><path d="M111 116 q18 -26 40 -22 q-8 14 -24 18 q14 -2 24 -14"/><path d="M169 116 q-18 -26 -40 -22 q8 14 24 18 q-14 -2 -24 -14"/><path d="M111 164 q18 26 40 22 q-8 -14 -24 -18 q14 2 24 14"/><path d="M169 164 q-18 26 -40 22 q8 -14 24 -18 q-14 2 -24 14"/></g><g stroke="#e8c97a" stroke-width="0.7"><circle cx="58" cy="56" r="1.7" fill="#e8c97a"/><circle cx="76" cy="46" r="1.2" fill="#e8c97a"/><circle cx="68" cy="74" r="1.2" fill="#e8c97a"/><path d="M58 56 L76 46 M58 56 L68 74 M76 46 L68 74"/><circle cx="224" cy="52" r="1.7" fill="#e8c97a"/><circle cx="206" cy="46" r="1.2" fill="#e8c97a"/><circle cx="232" cy="70" r="1.2" fill="#e8c97a"/><circle cx="214" cy="76" r="1.1" fill="#e8c97a"/><path d="M224 52 L206 46 M224 52 L232 70 M232 70 L214 76"/><circle cx="56" cy="222" r="1.7" fill="#e8c97a"/><circle cx="74" cy="232" r="1.2" fill="#e8c97a"/><circle cx="48" cy="204" r="1.2" fill="#e8c97a"/><circle cx="70" cy="208" r="1.1" fill="#e8c97a"/><circle cx="62" cy="246" r="1.1" fill="#e8c97a"/><path d="M48 204 L56 222 L74 232 M56 222 L70 208 M56 222 L62 246"/><circle cx="222" cy="224" r="1.7" fill="#e8c97a"/><circle cx="232" cy="206" r="1.2" fill="#e8c97a"/><path d="M222 224 L232 206"/></g><g stroke="#c2a878" stroke-width="1.2"><path d="M44 132 q-6 -8 -2 -16 q-10 2 -10 12 q0 10 10 12 q8 0 10 -8"/><path d="M236 148 q6 8 2 16 q10 -2 10 -12 q0 -10 -10 -12 q-8 0 -10 8"/><path d="M132 44 q-8 -6 -16 -2 q2 -10 12 -10 q10 0 12 10 q0 8 -8 10"/><path d="M148 236 q8 6 16 2 q-2 10 -12 10 q-10 0 -12 -10 q0 -8 8 -10"/></g></g></svg>
    </pattern>
  </defs>
  <rect width="1200" height="800" fill="url(#native-texture)" opacity="0.56"/>
  <rect width="1200" height="800" fill="url(#native-pattern)" opacity="0.12"/>
</svg>
