<svg xmlns="http://www.w3.org/2000/svg" width="1200" height="800" viewBox="0 0 1200 800">
  <defs>
    <pattern id="native-texture" width="240" height="240" patternUnits="userSpaceOnUse">
      <svg xmlns="http://www.w3.org/2000/svg" width="240" height="240" viewBox="0 0 240 240"><defs><filter id="nightHaze" x="-10%" y="-10%" width="120%" height="120%"><feTurbulence type="fractalNoise" baseFrequency="0.012" numOctaves="3" seed="21" stitchTiles="stitch" result="h"/><feColorMatrix in="h" type="matrix" values="0 0 0 0 0.58 0 0 0 0 0.66 0 0 0 0 0.88 0 0 0 0.5 -0.16"/><feGaussianBlur stdDeviation="1.2"/></filter><filter id="sugarDust" x="0" y="0" width="100%" height="100%"><feTurbulence type="fractalNoise" baseFrequency="0.9" numOctaves="2" seed="12" stitchTiles="stitch" result="s"/><feColorMatrix in="s" type="matrix" values="0 0 0 0 0.82 0 0 0 0 0.87 0 0 0 0 0.99 0 0 0 0.34 0"/></filter></defs><rect width="240" height="240" filter="url(#nightHaze)" opacity="0.55"/><rect width="240" height="240" filter="url(#sugarDust)" opacity="0.5"/></svg>
    </pattern>
    <pattern id="native-pattern" width="240" height="240" patternUnits="userSpaceOnUse">
      <svg xmlns="http://www.w3.org/2000/svg" width="240" height="240" viewBox="0 0 240 240"><defs><radialGradient id="masserRim" cx="0.5" cy="0.5" r="0.5"><stop offset="0" stop-color="#d9965e" stop-opacity="0.04"/><stop offset="0.6" stop-color="#d9965e" stop-opacity="0.08"/><stop offset="0.82" stop-color="#d9965e" stop-opacity="0.3"/><stop offset="1" stop-color="#eab282" stop-opacity="0.75"/></radialGradient><radialGradient id="secundaHalo" cx="0.5" cy="0.5" r="0.5"><stop offset="0" stop-color="#dfe7fb" stop-opacity="0.3"/><stop offset="0.45" stop-color="#ccd7f2" stop-opacity="0.12"/><stop offset="1" stop-color="#ccd7f2" stop-opacity="0"/></radialGradient><radialGradient id="secundaCore" cx="0.38" cy="0.35" r="0.75"><stop offset="0" stop-color="#f8faff"/><stop offset="0.55" stop-color="#dfe7f8"/><stop offset="1" stop-color="#aebbdd"/></radialGradient></defs><g stroke="#ccd7f2" stroke-width="0.9" stroke-linecap="round" fill="none"><path d="M 24,31 L 24,41 M 19,36 L 29,36" opacity="0.7"/><path d="M 62,20.5 L 62,27.5 M 58.5,24 L 65.5,24" opacity="0.45"/><path d="M 206,24 L 206,36 M 200,30 L 212,30" opacity="0.8"/><path d="M 228,62 L 228,70 M 224,66 L 232,66" opacity="0.5"/><path d="M 176,18 L 176,26 M 172,22 L 180,22" opacity="0.55"/><path d="M 222,102 L 222,114 M 216,108 L 228,108" opacity="0.65"/><path d="M 14,92 L 14,100 M 10,96 L 18,96" opacity="0.5"/><path d="M 30,143 L 30,153 M 25,148 L 35,148" opacity="0.6"/><path d="M 92,156 L 92,164 M 88,160 L 96,160" opacity="0.4"/><path d="M 150,144 L 150,156 M 144,150 L 156,150" opacity="0.75"/><path d="M 196,158 L 196,166 M 192,162 L 200,162" opacity="0.45"/><path d="M 226,191 L 226,201 M 221,196 L 231,196" opacity="0.6"/><path d="M 120,206 L 120,214 M 116,210 L 124,210" opacity="0.5"/><path d="M 74,217 L 74,227 M 69,222 L 79,222" opacity="0.55"/><path d="M 170,222 L 170,230 M 166,226 L 174,226" opacity="0.4"/></g><g fill="#eef2fd"><circle cx="24" cy="36" r="0.9" opacity="0.7"/><circle cx="62" cy="24" r="0.8" opacity="0.45"/><circle cx="206" cy="30" r="1" opacity="0.8"/><circle cx="228" cy="66" r="0.8" opacity="0.5"/><circle cx="176" cy="22" r="0.8" opacity="0.55"/><circle cx="222" cy="108" r="0.9" opacity="0.65"/><circle cx="14" cy="96" r="0.8" opacity="0.5"/><circle cx="30" cy="148" r="0.9" opacity="0.6"/><circle cx="92" cy="160" r="0.8" opacity="0.4"/><circle cx="150" cy="150" r="1" opacity="0.75"/><circle cx="196" cy="162" r="0.8" opacity="0.45"/><circle cx="226" cy="196" r="0.9" opacity="0.6"/><circle cx="120" cy="210" r="0.8" opacity="0.5"/><circle cx="74" cy="222" r="0.9" opacity="0.55"/><circle cx="170" cy="226" r="0.8" opacity="0.4"/></g><g fill="#ccd7f2"><circle cx="200" cy="84" r="1" opacity="0.4"/><circle cx="48" cy="60" r="0.9" opacity="0.35"/><circle cx="222" cy="140" r="1" opacity="0.4"/><circle cx="98" cy="196" r="1" opacity="0.35"/><circle cx="16" cy="180" r="0.9" opacity="0.4"/><circle cx="128" cy="92" r="1" opacity="0.5"/><circle cx="126" cy="58" r="0.8" opacity="0.45"/></g><g fill="none" stroke="#283051" stroke-width="0.8" opacity="0.55"><path d="M 32,0 A 32,32 0 0 1 0,32"/><path d="M 24,0 A 24,24 0 0 1 0,24"/><path d="M 16,0 A 16,16 0 0 1 0,16"/><path d="M 208,0 A 32,32 0 0 0 240,32"/><path d="M 216,0 A 24,24 0 0 0 240,24"/><path d="M 224,0 A 16,16 0 0 0 240,16"/><path d="M 0,208 A 32,32 0 0 1 32,240"/><path d="M 0,216 A 24,24 0 0 1 24,240"/><path d="M 0,224 A 16,16 0 0 1 16,240"/><path d="M 240,208 A 32,32 0 0 0 208,240"/><path d="M 240,216 A 24,24 0 0 0 216,240"/><path d="M 240,224 A 16,16 0 0 0 224,240"/></g><g stroke="#a3adc9" fill="none" stroke-linecap="round"><line x1="0" y1="104" x2="240" y2="104" stroke-width="0.7" opacity="0.2"/><line x1="0" y1="120" x2="240" y2="120" stroke-width="0.7" opacity="0.3"/><line x1="0" y1="136" x2="240" y2="136" stroke-width="0.7" opacity="0.2"/></g><g fill="none" stroke="#a3adc9" stroke-linecap="round"><ellipse cx="94" cy="72" rx="72" ry="23" transform="rotate(-22 94 72)" stroke-width="1" opacity="0.5"/><ellipse cx="94" cy="72" rx="72" ry="26" transform="rotate(22 94 72)" stroke-width="0.8" opacity="0.38"/></g><g><circle cx="94" cy="72" r="34" fill="#0b0e1b"/><circle cx="94" cy="72" r="34" fill="url(#masserRim)"/><circle cx="94" cy="72" r="34" fill="none" stroke="#d9965e" stroke-width="1.5" opacity="0.9"/><circle cx="94" cy="72" r="27.5" fill="none" stroke="#d9965e" stroke-width="0.7" opacity="0.4"/><path d="M 74,64 A 22,22 0 0 1 92,52" fill="none" stroke="#d9965e" stroke-width="0.7" opacity="0.3"/><path d="M 104,92 A 18,18 0 0 0 88,96" fill="none" stroke="#d9965e" stroke-width="0.7" opacity="0.25"/><circle cx="106" cy="64" r="2" fill="#d9965e" opacity="0.28"/><circle cx="82" cy="82" r="1.4" fill="#d9965e" opacity="0.25"/></g><g><circle cx="140" cy="42" r="25" fill="url(#secundaHalo)"/><circle cx="140" cy="42" r="16" fill="url(#secundaCore)"/><circle cx="140" cy="42" r="16" fill="none" stroke="#eef2fd" stroke-width="1.1" opacity="0.85"/><circle cx="135" cy="39" r="1.6" fill="#9aa9cf" opacity="0.5"/><circle cx="145" cy="47" r="1.1" fill="#9aa9cf" opacity="0.45"/><circle cx="139" cy="49" r="0.9" fill="#9aa9cf" opacity="0.4"/></g><g stroke-linecap="round" stroke-linejoin="round"><circle cx="0" cy="120" r="9" fill="#0a0e1c" stroke="#ccd7f2" stroke-width="1" opacity="0.85"/><circle cx="240" cy="120" r="9" fill="#0a0e1c" stroke="#ccd7f2" stroke-width="1" opacity="0.85"/><circle cx="30" cy="120" r="9" fill="#0a0e1c" stroke="#ccd7f2" stroke-width="1" opacity="0.85"/><path d="M 30,111 A 9,9 0 0 1 30,129 A 5.5,9 0 0 0 30,111 Z" fill="#ccd7f2" opacity="0.9"/><circle cx="60" cy="120" r="9" fill="#0a0e1c" stroke="#ccd7f2" stroke-width="1" opacity="0.85"/><path d="M 60,111 A 9,9 0 0 1 60,129 Z" fill="#ccd7f2" opacity="0.9"/><circle cx="90" cy="120" r="9" fill="#ccd7f2" opacity="0.9"/><path d="M 90,111 A 9,9 0 0 0 90,129 A 5.5,9 0 0 1 90,111 Z" fill="#0a0e1c" opacity="0.95"/><circle cx="120" cy="120" r="9" fill="#ccd7f2" opacity="0.9"/><circle cx="117.5" cy="117.5" r="2.2" fill="#f4f7ff" opacity="0.8"/><circle cx="150" cy="120" r="9" fill="#ccd7f2" opacity="0.9"/><path d="M 150,111 A 9,9 0 0 1 150,129 A 5.5,9 0 0 0 150,111 Z" fill="#0a0e1c" opacity="0.95"/><circle cx="180" cy="120" r="9" fill="#0a0e1c" stroke="#ccd7f2" stroke-width="1" opacity="0.85"/><path d="M 180,111 A 9,9 0 0 0 180,129 Z" fill="#ccd7f2" opacity="0.9"/><circle cx="210" cy="120" r="9" fill="#0a0e1c" stroke="#ccd7f2" stroke-width="1" opacity="0.85"/><path d="M 210,111 A 9,9 0 0 0 210,129 A 5.5,9 0 0 1 210,111 Z" fill="#ccd7f2" opacity="0.9"/></g><g fill="none"><circle cx="52" cy="188" r="15" stroke="#283051" stroke-width="0.7" opacity="0.35"/><circle cx="52" cy="188" r="11" fill="#070912" stroke="#283051" stroke-width="1" opacity="0.9"/></g></svg>
    </pattern>
  </defs>
  <rect width="1200" height="800" fill="url(#native-texture)" opacity="0.56"/>
  <rect width="1200" height="800" fill="url(#native-pattern)" opacity="0.12"/>
</svg>
