<svg xmlns="http://www.w3.org/2000/svg" width="1200" height="800" viewBox="0 0 1200 800">
  <defs>
    <pattern id="native-texture" width="240" height="240" patternUnits="userSpaceOnUse">
      <svg xmlns="http://www.w3.org/2000/svg" width="240" height="240" viewBox="0 0 240 240"><defs><filter id="granite" x="0" y="0" width="100%" height="100%"><feTurbulence type="fractalNoise" baseFrequency="0.045 0.05" numOctaves="3" seed="14" stitchTiles="stitch" result="g"/><feColorMatrix in="g" type="matrix" values="0 0 0 0 0.42 0 0 0 0 0.45 0 0 0 0 0.47 0 0 0 0.15 0"/></filter><filter id="grain" x="0" y="0" width="100%" height="100%"><feTurbulence type="fractalNoise" baseFrequency="0.85" numOctaves="2" seed="6" stitchTiles="stitch" result="n"/><feColorMatrix in="n" type="matrix" values="0 0 0 0 0.10 0 0 0 0 0.11 0 0 0 0 0.12 0 0 0 0.40 0"/></filter><filter id="mottle" x="-10%" y="-10%" width="120%" height="120%"><feTurbulence type="fractalNoise" baseFrequency="0.016" numOctaves="3" seed="22" stitchTiles="stitch" result="m"/><feColorMatrix in="m" type="matrix" values="0 0 0 0 0.05 0 0 0 0 0.05 0 0 0 0 0.06 0 0 0 0.5 -0.18"/><feGaussianBlur stdDeviation="1.0"/></filter></defs><rect width="240" height="240" filter="url(#granite)" opacity="0.5"/><rect width="240" height="240" filter="url(#mottle)" opacity="0.5"/><g stroke="#0c0f12" stroke-width="2" fill="none" opacity="0.28"><path d="M0 78 L72 94 L122 74 L182 96 L240 76"/><path d="M0 170 L60 152 L132 174 L192 152 L240 172"/></g><g stroke="#544020" stroke-width="0.8" fill="none" opacity="0.16"><path d="M0 79 L72 95 L122 75 L182 97 L240 77"/><path d="M0 171 L60 153 L132 175 L192 153 L240 173"/></g><rect width="240" height="240" filter="url(#grain)" opacity="0.3"/></svg>
    </pattern>
    <pattern id="native-pattern" width="240" height="240" patternUnits="userSpaceOnUse">
      <svg xmlns="http://www.w3.org/2000/svg" width="240" height="240" viewBox="0 0 240 240"><defs><linearGradient id="amb" x1="0" y1="0" x2="0" y2="1"><stop offset="0" stop-color="#eec77e"/><stop offset="0.5" stop-color="#d8a24a"/><stop offset="1" stop-color="#9c6f2c"/></linearGradient><linearGradient id="stl" x1="0" y1="0" x2="0" y2="1"><stop offset="0" stop-color="#9bc0de"/><stop offset="1" stop-color="#5a86ad"/></linearGradient></defs><g stroke="#3a2a12" stroke-width="1.1" stroke-linecap="round" stroke-linejoin="round" fill="none" opacity="0.55" transform="translate(1,1)"><line x1="0" y1="20" x2="240" y2="20"/><line x1="0" y1="220" x2="240" y2="220"/><line x1="0" y1="92" x2="240" y2="92"/><line x1="0" y1="148" x2="240" y2="148"/><path d="M0,120 C30,104 30,136 60,120 C90,104 90,136 120,120 C150,104 150,136 180,120 C210,104 210,136 240,120"/><path d="M0,112 C30,128 30,96 60,112 C90,128 90,96 120,112 C150,128 150,96 180,112 C210,128 210,96 240,112"/><path d="M0,180 C30,164 30,196 60,180 C90,164 90,196 120,180 C150,164 150,196 180,180 C210,164 210,196 240,180"/><path d="M0,172 C30,188 30,156 60,172 C90,188 90,156 120,172 C150,188 150,156 180,172 C210,188 210,156 240,172"/><path d="M120,194 L101,228 L139,228 Z"/><path d="M111,210 L130,210 L120,228 Z"/></g><g stroke="url(#stl)" stroke-width="1.2" stroke-linecap="round" stroke-linejoin="round" fill="none" opacity="0.95"><line x1="20" y1="36" x2="20" y2="76"/><line x1="20" y1="40" x2="34" y2="50"/><line x1="20" y1="52" x2="34" y2="62"/><line x1="52" y1="36" x2="52" y2="76"/><line x1="52" y1="36" x2="66" y2="46"/><line x1="66" y1="46" x2="52" y2="56"/><line x1="84" y1="36" x2="84" y2="76"/><line x1="84" y1="58" x2="98" y2="44"/><line x1="84" y1="58" x2="98" y2="72"/><line x1="116" y1="36" x2="116" y2="76"/><line x1="116" y1="38" x2="129" y2="48"/><line x1="116" y1="50" x2="129" y2="40"/><line x1="148" y1="36" x2="148" y2="76"/><line x1="148" y1="56" x2="162" y2="40"/><line x1="148" y1="56" x2="162" y2="72"/><line x1="180" y1="36" x2="180" y2="76"/><line x1="206" y1="36" x2="206" y2="76"/><line x1="206" y1="36" x2="220" y2="46"/><line x1="220" y1="46" x2="206" y2="56"/></g><g stroke="url(#amb)" stroke-width="1.3" stroke-linecap="round" stroke-linejoin="round" fill="none"><line x1="0" y1="20" x2="240" y2="20" opacity="0.6"/><line x1="0" y1="220" x2="240" y2="220" opacity="0.6"/><line x1="0" y1="92" x2="240" y2="92" opacity="0.45"/><line x1="0" y1="148" x2="240" y2="148" opacity="0.45"/></g><g stroke="url(#amb)" stroke-width="1.3" stroke-linecap="round" stroke-linejoin="round" fill="none" opacity="0.94"><path d="M0,120 C30,104 30,136 60,120 C90,104 90,136 120,120 C150,104 150,136 180,120 C210,104 210,136 240,120"/></g><g stroke="url(#stl)" stroke-width="1.2" stroke-linecap="round" stroke-linejoin="round" fill="none" opacity="0.85"><path d="M5,114 C30,128 30,96 55,110"/><path d="M65,110 C90,96 90,128 115,114"/><path d="M125,114 C150,128 150,96 175,110"/><path d="M185,110 C210,96 210,128 235,114"/></g><g stroke="url(#amb)" stroke-width="1.3" stroke-linecap="round" stroke-linejoin="round" fill="none" opacity="0.88"><path d="M0,180 C30,164 30,196 60,180 C90,164 90,196 120,180 C150,164 150,196 180,180 C210,164 210,196 240,180"/></g><g stroke="url(#stl)" stroke-width="1.2" stroke-linecap="round" stroke-linejoin="round" fill="none" opacity="0.78"><path d="M5,174 C30,188 30,156 55,170"/><path d="M65,170 C90,156 90,188 115,174"/><path d="M125,174 C150,188 150,156 175,170"/><path d="M185,170 C210,156 210,188 235,174"/></g><g stroke="url(#amb)" stroke-width="1.4" stroke-linecap="round" stroke-linejoin="round" fill="none" opacity="0.95"><path d="M120,194 L101,228 L139,228 Z"/><path d="M111,210 L130,210 L120,228 Z"/></g><g stroke="url(#amb)" stroke-width="1.0" stroke-linecap="round" stroke-linejoin="round" fill="none" opacity="0.8"><path d="M120,0 C108,8 108,26 120,32 C132,26 132,8 120,0"/><path d="M120,240 C108,232 108,214 120,208 C132,214 132,232 120,240"/><path d="M0,0 C8,10 26,10 32,0"/><path d="M0,240 C8,230 26,230 32,240"/><path d="M240,0 C232,10 214,10 208,0"/><path d="M240,240 C232,230 214,230 208,240"/><circle cx="120" cy="14" r="2.2"/><circle cx="120" cy="226" r="2.2"/><path d="M44,6 C52,12 60,12 68,6"/><path d="M172,6 C180,12 188,12 196,6"/><path d="M44,234 C52,228 60,228 68,234"/><path d="M172,234 C180,228 188,228 196,234"/></g></svg>
    </pattern>
  </defs>
  <rect width="1200" height="800" fill="url(#native-texture)" opacity="0.56"/>
  <rect width="1200" height="800" fill="url(#native-pattern)" opacity="0.12"/>
</svg>
