<svg xmlns="http://www.w3.org/2000/svg" width="1200" height="800" viewBox="0 0 1200 800">
  <defs>
    <pattern id="native-texture" width="200" height="200" patternUnits="userSpaceOnUse">
      <svg xmlns="http://www.w3.org/2000/svg" width="200" height="200" viewBox="0 0 200 200"><defs><filter id="smk" x="0" y="0" width="100%" height="100%"><feTurbulence type="fractalNoise" baseFrequency="0.012 0.026" numOctaves="3" seed="11" stitchTiles="stitch" result="n"/><feColorMatrix in="n" type="matrix" values="0 0 0 0 0.06 0 0 0 0 0.07 0 0 0 0 0.09 0 0 0 0.5 0"/></filter><filter id="grn"><feTurbulence type="fractalNoise" baseFrequency="0.85" numOctaves="2" seed="7" stitchTiles="stitch" result="g"/><feColorMatrix in="g" type="matrix" values="0 0 0 0 0.5 0 0 0 0 0.5 0 0 0 0 0.52 0 0 0 0.07 0"/></filter></defs><rect width="200" height="200" filter="url(#smk)"/><rect width="200" height="200" filter="url(#grn)"/></svg>
    </pattern>
    <pattern id="native-pattern" width="280" height="280" patternUnits="userSpaceOnUse">
      <svg xmlns="http://www.w3.org/2000/svg" width="280" height="280" viewBox="0 0 280 280"><defs><linearGradient id="blood" x1="0" y1="0" x2="0" y2="1"><stop offset="0" stop-color="#c81e30"/><stop offset="1" stop-color="#7a0f18"/></linearGradient></defs><g fill="none" stroke="url(#blood)" stroke-width="1.15" stroke-linecap="round" stroke-linejoin="round"><g transform="translate(148 96)"><path d="M -34 48 C -40 30 -42 18 -40 6 C -39 0 -34 0 -33 6 C -32 14 -31 22 -30 28 C -29 18 -30 4 -31 -12 C -31 -20 -24 -20 -24 -12 C -24 2 -23 16 -22 26 C -20 14 -19 -6 -18 -28 C -18 -37 -10 -37 -10 -28 C -10 -4 -10 18 -10 28 C -8 16 -6 -12 -3 -40 C -2 -50 7 -50 7 -40 C 7 -10 5 16 4 28 C 7 14 11 -6 16 -22 C 19 -31 27 -28 24 -19 C 19 -2 14 18 12 30 C 18 22 26 14 33 8 C 40 2 45 9 39 15 C 30 24 22 34 18 46 C 14 58 4 64 -8 64 C -22 64 -30 58 -34 48 Z" stroke="#2a0a0e" stroke-width="3.0" opacity="0.85" transform="translate(1.5 2.5)"/><path d="M -34 48 C -40 30 -42 18 -40 6 C -39 0 -34 0 -33 6 C -32 14 -31 22 -30 28 C -29 18 -30 4 -31 -12 C -31 -20 -24 -20 -24 -12 C -24 2 -23 16 -22 26 C -20 14 -19 -6 -18 -28 C -18 -37 -10 -37 -10 -28 C -10 -4 -10 18 -10 28 C -8 16 -6 -12 -3 -40 C -2 -50 7 -50 7 -40 C 7 -10 5 16 4 28 C 7 14 11 -6 16 -22 C 19 -31 27 -28 24 -19 C 19 -2 14 18 12 30 C 18 22 26 14 33 8 C 40 2 45 9 39 15 C 30 24 22 34 18 46 C 14 58 4 64 -8 64 C -22 64 -30 58 -34 48 Z" stroke-width="1.3"/><path d="M -34 26 C -47 20 -60 24 -66 33 C -69 37 -63 42 -59 39 C -51 33 -43 32 -34 34" stroke-width="1.25"/><path d="M -20 42 C -9 48 6 48 16 41" stroke="#8d8a82" stroke-width="0.95" opacity="0.55"/><path d="M -16 50 C -7 54 5 54 13 49" stroke="#8d8a82" stroke-width="0.8" opacity="0.4"/><circle cx="-8" cy="38" r="2.3" fill="#c81e30" stroke="none"/></g><g stroke="url(#blood)" stroke-width="1.05" opacity="0.82"><path d="M140 0 C151 16 153 33 145 48 C137 61 122 65 110 60"/><path d="M140 0 C129 16 127 33 135 48 C143 61 158 65 170 60"/><path d="M118 14 C110 13 105 19 107 26 C114 25 119 20 118 14 Z" fill="#7a0f18" fill-opacity="0.28" stroke="#7a0f18" stroke-width="0.85"/><path d="M163 20 C171 21 176 27 174 34 C167 33 162 27 163 20 Z" fill="#7a0f18" fill-opacity="0.28" stroke="#7a0f18" stroke-width="0.85"/><path d="M140 280 C151 264 153 247 145 232 C137 219 122 215 110 220"/><path d="M140 280 C129 264 127 247 135 232 C143 219 158 215 170 220"/><path d="M118 266 C110 267 105 261 107 254 C114 255 119 260 118 266 Z" fill="#7a0f18" fill-opacity="0.28" stroke="#7a0f18" stroke-width="0.85"/><path d="M163 260 C171 259 176 253 174 246 C167 247 162 253 163 260 Z" fill="#7a0f18" fill-opacity="0.28" stroke="#7a0f18" stroke-width="0.85"/></g><g transform="translate(140 44)" stroke="url(#blood)" stroke-width="0.95" opacity="0.85"><path d="M0 -2 C-8 -13 -18 -11 -18 0 C-18 9 -9 12 0 10 C9 12 18 9 18 0 C18 -11 8 -13 0 -2 Z"/><path d="M0 -1 C-10 -7 -15 2 -10 10 C-3 15 4 15 10 10 C15 2 10 -7 0 -1 Z" opacity="0.7"/><path d="M0 1 C-5 -4 -11 3 -6 9 M0 1 C5 -4 11 3 6 9" opacity="0.6"/><circle r="2.0" fill="#7a0f18" stroke="none"/></g><g transform="translate(140 236)" stroke="url(#blood)" stroke-width="0.95" opacity="0.85"><path d="M0 -2 C-8 -13 -18 -11 -18 0 C-18 9 -9 12 0 10 C9 12 18 9 18 0 C18 -11 8 -13 0 -2 Z"/><path d="M0 -1 C-10 -7 -15 2 -10 10 C-3 15 4 15 10 10 C15 2 10 -7 0 -1 Z" opacity="0.7"/><path d="M0 1 C-5 -4 -11 3 -6 9 M0 1 C5 -4 11 3 6 9" opacity="0.6"/><circle r="2.0" fill="#7a0f18" stroke="none"/></g><g stroke="#8d8a82" stroke-width="0.8" opacity="0.4"><path d="M0 140 C20 130 38 132 52 142 C62 149 66 161 62 173"/><path d="M0 140 C20 150 38 148 52 138 C62 131 66 119 62 107"/><path d="M280 140 C260 130 242 132 228 142 C218 149 214 161 218 173"/><path d="M280 140 C260 150 242 148 228 138 C218 131 214 119 218 107"/><path d="M26 124 C20 118 18 124 22 128 C26 128 28 126 26 124 Z" fill="#8d8a82" fill-opacity="0.22"/><path d="M32 160 C26 166 28 170 32 168 C34 164 34 162 32 160 Z" fill="#8d8a82" fill-opacity="0.22"/><path d="M254 124 C260 118 262 124 258 128 C254 128 252 126 254 124 Z" fill="#8d8a82" fill-opacity="0.22"/><path d="M248 160 C254 166 252 170 248 168 C246 164 246 162 248 160 Z" fill="#8d8a82" fill-opacity="0.22"/></g><g stroke="url(#blood)" stroke-width="1.1"><circle cx="8" cy="30" r="3" fill="#7a0f18" stroke="#c81e30" stroke-width="0.9"/><path d="M10.5 31.5 L22 38" stroke-width="1.6"/><path d="M19 46 L29 30" stroke-width="1.3"/><path d="M26 40 C40 46 50 52 60 56 C68 60 74 64 84 70 C72 66 64 64 56 62 C46 60 36 52 26 40 Z"/><path d="M29 43 C44 50 58 56 78 66" stroke="#c81e30" stroke-width="0.8" opacity="0.6"/><circle cx="30" cy="8" r="3" fill="#7a0f18" stroke="#c81e30" stroke-width="0.9"/><path d="M31.5 10.5 L38 22" stroke-width="1.6"/><path d="M46 19 L30 29" stroke-width="1.3"/><path d="M40 26 C46 40 52 50 56 60 C60 68 64 74 70 84 C66 72 64 64 62 56 C60 46 52 36 40 26 Z"/><path d="M43 29 C50 44 56 58 66 78" stroke="#c81e30" stroke-width="0.8" opacity="0.6"/></g><g stroke="url(#blood)" stroke-width="1.1"><circle cx="272" cy="30" r="3" fill="#7a0f18" stroke="#c81e30" stroke-width="0.9"/><path d="M269.5 31.5 L258 38" stroke-width="1.6"/><path d="M261 46 L251 30" stroke-width="1.3"/><path d="M254 40 C240 46 230 52 220 56 C212 60 206 64 196 70 C208 66 216 64 224 62 C234 60 244 52 254 40 Z"/><path d="M251 43 C236 50 222 56 202 66" stroke="#c81e30" stroke-width="0.8" opacity="0.6"/><circle cx="250" cy="8" r="3" fill="#7a0f18" stroke="#c81e30" stroke-width="0.9"/><path d="M248.5 10.5 L242 22" stroke-width="1.6"/><path d="M234 19 L250 29" stroke-width="1.3"/><path d="M240 26 C234 40 228 50 224 60 C220 68 216 74 210 84 C214 72 216 64 218 56 C220 46 228 36 240 26 Z"/><path d="M237 29 C230 44 224 58 214 78" stroke="#c81e30" stroke-width="0.8" opacity="0.6"/></g><g stroke="url(#blood)" stroke-width="1.1"><circle cx="8" cy="250" r="3" fill="#7a0f18" stroke="#c81e30" stroke-width="0.9"/><path d="M10.5 248.5 L22 242" stroke-width="1.6"/><path d="M19 234 L29 250" stroke-width="1.3"/><path d="M26 240 C40 234 50 228 60 224 C68 220 74 216 84 210 C72 214 64 216 56 218 C46 220 36 228 26 240 Z"/><path d="M29 237 C44 230 58 224 78 214" stroke="#c81e30" stroke-width="0.8" opacity="0.6"/><circle cx="30" cy="272" r="3" fill="#7a0f18" stroke="#c81e30" stroke-width="0.9"/><path d="M31.5 269.5 L38 258" stroke-width="1.6"/><path d="M46 261 L30 251" stroke-width="1.3"/><path d="M40 254 C46 240 52 230 56 220 C60 212 64 206 70 196 C66 208 64 216 62 224 C60 234 52 244 40 254 Z"/><path d="M43 251 C50 236 56 222 66 202" stroke="#c81e30" stroke-width="0.8" opacity="0.6"/></g><g stroke="url(#blood)" stroke-width="1.1"><circle cx="272" cy="250" r="3" fill="#7a0f18" stroke="#c81e30" stroke-width="0.9"/><path d="M269.5 248.5 L258 242" stroke-width="1.6"/><path d="M261 234 L251 250" stroke-width="1.3"/><path d="M254 240 C240 234 230 228 220 224 C212 220 206 216 196 210 C208 214 216 216 224 218 C234 220 244 228 254 240 Z"/><path d="M251 237 C236 230 222 224 202 214" stroke="#c81e30" stroke-width="0.8" opacity="0.6"/><circle cx="250" cy="272" r="3" fill="#7a0f18" stroke="#c81e30" stroke-width="0.9"/><path d="M248.5 269.5 L242 258" stroke-width="1.6"/><path d="M234 261 L250 251" stroke-width="1.3"/><path d="M240 254 C234 240 228 230 224 220 C220 212 216 206 210 196 C214 208 216 216 218 224 C220 234 228 244 240 254 Z"/><path d="M237 251 C230 236 224 222 214 202" stroke="#c81e30" stroke-width="0.8" opacity="0.6"/></g></g></svg>
    </pattern>
  </defs>
  <rect width="1200" height="800" fill="url(#native-texture)" opacity="0.56"/>
  <rect width="1200" height="800" fill="url(#native-pattern)" opacity="0.12"/>
</svg>
